<?xml version="1.0" encoding="UTF-8" standalone="no"?>
<!-- Created with Inkscape (http://www.inkscape.org/) -->

<svg
   xmlns:dc="http://purl.org/dc/elements/1.1/"
   xmlns:cc="http://creativecommons.org/ns#"
   xmlns:rdf="http://www.w3.org/1999/02/22-rdf-syntax-ns#"
   xmlns:svg="http://www.w3.org/2000/svg"
   xmlns="http://www.w3.org/2000/svg"
   version="1.1"
   width="100"
   height="50"
   viewBox="0 0 100 50"
   id="Layer_1"
   xml:space="preserve"><metadata
   id="metadata43"><rdf:RDF><cc:Work
       rdf:about=""><dc:format>image/svg+xml</dc:format><dc:type
         rdf:resource="http://purl.org/dc/dcmitype/StillImage" /><dc:title></dc:title></cc:Work></rdf:RDF></metadata><defs
   id="defs41" />
<g
   transform="translate(11.124871,0)"
   id="g3">
	<path
   d="M 27.184,41.096 H 23.105 V 24.021 L 19.06,26.26 17.354,23.052 23.506,19.51 h 3.678 v 21.586 z m -7.824,0 h -1.676 l -0.216,-0.738 c -1.098,0.541 -2.485,0.92 -3.513,0.92 -1.459,0 -1.981,-1.027 -1.981,-2.594 v -6.355 h 2.198 v 6.121 c 0,0.469 0.198,0.703 0.703,0.703 0.54,0 1.495,-0.324 2.287,-0.738 v -6.086 h 2.198 v 8.767 z m 24.12,-5.627 c -0.614,4.473 -3.691,5.963 -9.108,5.963 -1.236,0 -2.841,-0.168 -3.845,-0.402 l 0.368,-3.408 c 0.969,0.199 2.34,0.303 3.042,0.303 4.315,0 5.586,-1.004 5.586,-4.078 v -2.072 c -1.172,0.4 -2.542,0.602 -3.98,0.602 -4.045,0 -5.683,-1.672 -5.683,-5.514 v -1.604 c 0,-3.743 1.771,-6.082 6.854,-6.082 1.726,0 3.027,0.232 4.017,0.656 L 38.1,4.879 C 34.334,2.429 29.843,1 25.015,1 11.752,1 1,11.746 1,24.999 1,38.252 11.752,49 25.015,49 32.846,49 39.8,45.252 44.183,39.455 L 43.48,35.469 z"
   id="path5" />
	<path
   d="m 33.938,25.125 v 1.635 c 0,1.605 0.769,2.107 2.24,2.107 1.204,0 2.407,-0.301 3.345,-0.701 v -3.041 c 0,-1.839 -0.704,-2.44 -2.81,-2.44 -2.106,0.001 -2.775,0.735 -2.775,2.44"
   id="path7" />
	<path
   d="m 46.561,23.938 c 0.131,0.73 0.455,0.915 1.31,0.764 0.316,-0.055 0.819,-0.185 1.207,-0.325 l 0.173,0.567 c -0.361,0.154 -0.902,0.307 -1.295,0.375 -1.28,0.227 -1.889,-0.234 -2.063,-1.223 l -0.407,-2.308 c -0.173,-0.989 0.24,-1.628 1.52,-1.855 0.395,-0.069 0.952,-0.111 1.346,-0.091 l 0.032,0.594 c -0.415,0 -0.933,0.051 -1.245,0.105 -0.857,0.151 -1.099,0.437 -0.971,1.167 l 0.393,2.23 z"
   id="path9" />
	<path
   d="m 51.946,22.584 -1.282,0.226 0.333,1.892 -0.675,0.119 -0.923,-5.229 1.997,-0.352 c 1.122,-0.199 1.602,0.22 1.743,1.02 l 0.132,0.754 c 0.109,0.62 -0.043,1.085 -0.617,1.364 l 1.707,1.731 -0.777,0.137 -1.638,-1.662 z m -0.467,-2.735 -1.298,0.228 0.378,2.136 1.297,-0.229 c 0.644,-0.113 0.832,-0.333 0.741,-0.843 L 52.464,20.388 C 52.373,19.87 52.122,19.736 51.479,19.849"
   id="path11" />
	<polygon
   points="57.669,20.45 57.776,21.055 55.543,21.448 55.858,23.222 58.27,22.797 58.376,23.402 55.288,23.946 54.367,18.717 57.445,18.174 57.553,18.779 55.147,19.203 55.438,20.844 "
   id="polygon13" />
	<path
   d="m 63.616,22.478 -0.684,0.121 -0.653,-1.18 -2.225,0.392 -0.201,1.331 -0.684,0.12 0.846,-5.541 0.911,-0.16 2.69,4.917 z m -3.058,-4.351 -0.425,3.063 1.87,-0.33 -1.445,-2.733 z"
   id="path15" />
	<polygon
   points="64.994,17.468 65.81,22.092 65.133,22.211 64.317,17.587 62.754,17.862 62.647,17.258 66.451,16.588 66.558,17.192 "
   id="polygon17" />
	<polygon
   points="70.579,18.175 70.687,18.78 68.453,19.172 68.767,20.948 71.18,20.522 71.285,21.127 68.199,21.671 67.274,16.441 70.354,15.899 70.46,16.504 68.058,16.928 68.346,18.568 "
   id="polygon19" />
	<polygon
   points="48.423,31.047 46.042,27.704 46.75,27.577 48.632,30.258 49.483,27.096 50.191,26.971 49.098,30.928 49.376,32.506 48.7,32.625 "
   id="polygon21" />
	<path
   d="m 55.153,29.934 c 0.152,0.871 -0.263,1.682 -1.614,1.918 C 52.187,32.09 51.52,31.471 51.366,30.6 l -0.392,-2.213 c -0.152,-0.871 0.264,-1.682 1.614,-1.92 1.353,-0.238 2.02,0.381 2.174,1.252 l 0.391,2.215 z m -3.113,0.533 c 0.112,0.643 0.568,0.934 1.394,0.789 0.826,-0.145 1.155,-0.574 1.042,-1.219 L 54.089,27.853 C 53.976,27.21 53.52,26.917 52.695,27.064 51.87,27.209 51.54,27.638 51.653,28.283 l 0.387,2.184 z"
   id="path23" />
	<path
   d="m 59.384,25.35 0.663,3.762 c 0.151,0.855 -0.222,1.633 -1.581,1.873 -1.359,0.238 -1.977,-0.363 -2.127,-1.221 l -0.662,-3.76 0.675,-0.119 0.656,3.721 c 0.114,0.645 0.526,0.92 1.352,0.773 0.824,-0.145 1.12,-0.545 1.005,-1.188 l -0.656,-3.723 0.675,-0.118 z"
   id="path25" />
	<path
   d="m 63.227,28.114 -1.282,0.227 0.335,1.893 -0.676,0.119 -0.923,-5.23 1.995,-0.35 c 1.123,-0.199 1.603,0.219 1.742,1.02 l 0.134,0.754 c 0.11,0.621 -0.044,1.084 -0.617,1.363 l 1.707,1.732 -0.778,0.135 -1.637,-1.663 z m -0.468,-2.735 -1.296,0.229 0.377,2.135 1.297,-0.227 c 0.644,-0.115 0.831,-0.334 0.741,-0.846 l -0.133,-0.752 c -0.091,-0.519 -0.342,-0.652 -0.986,-0.539"
   id="path27" />
	<polygon
   points="50.915,34.936 50.656,39.799 49.705,39.965 47.407,34.979 48.066,34.862 50.071,39.239 50.346,34.461 51.289,34.293 53.182,38.69 53.566,33.893 54.227,33.778 53.775,39.249 52.824,39.417 "
   id="polygon29" />
	<path
   d="m 59.339,36.713 c 0.153,0.871 -0.262,1.682 -1.614,1.92 -1.351,0.238 -2.019,-0.381 -2.173,-1.252 l -0.39,-2.215 c -0.155,-0.871 0.261,-1.68 1.613,-1.92 1.352,-0.236 2.021,0.383 2.173,1.254 l 0.391,2.213 z m -3.113,0.534 c 0.113,0.643 0.57,0.936 1.395,0.791 0.825,-0.146 1.154,-0.576 1.04,-1.219 l -0.385,-2.184 c -0.113,-0.645 -0.57,-0.938 -1.396,-0.791 -0.823,0.145 -1.153,0.576 -1.039,1.221 l 0.385,2.182 z"
   id="path31" />
	<path
   d="m 62.446,35.77 -1.281,0.225 0.332,1.893 -0.674,0.119 -0.922,-5.23 1.995,-0.35 c 1.123,-0.197 1.602,0.221 1.744,1.021 l 0.131,0.752 c 0.109,0.621 -0.043,1.086 -0.617,1.363 l 1.707,1.732 -0.777,0.137 -1.638,-1.662 z m -0.467,-2.736 -1.297,0.23 0.377,2.135 1.297,-0.229 C 63,35.057 63.188,34.838 63.098,34.326 l -0.134,-0.754 c -0.09,-0.517 -0.341,-0.65 -0.985,-0.538"
   id="path33" />
	<polygon
   points="65.543,31.784 66.357,36.407 68.628,36.008 68.736,36.614 65.788,37.131 64.867,31.903 "
   id="polygon35" />
	<path
   d="m 70.626,30.887 c 1.28,-0.225 1.8,0.373 1.945,1.203 l 0.394,2.23 c 0.146,0.832 -0.137,1.568 -1.417,1.797 l -1.83,0.322 -0.924,-5.23 1.832,-0.322 z m -0.339,4.828 1.13,-0.199 c 0.796,-0.139 0.974,-0.51 0.865,-1.123 l -0.379,-2.135 c -0.108,-0.613 -0.4,-0.9 -1.194,-0.762 l -1.132,0.199 0.71,4.02 z"
   id="path37" />
</g>
</svg>