<?xml version="1.0" encoding="UTF-8" standalone="no"?>
<!-- Created with Inkscape (http://www.inkscape.org/) -->

<svg
   xmlns:dc="http://purl.org/dc/elements/1.1/"
   xmlns:cc="http://creativecommons.org/ns#"
   xmlns:rdf="http://www.w3.org/1999/02/22-rdf-syntax-ns#"
   xmlns:svg="http://www.w3.org/2000/svg"
   xmlns="http://www.w3.org/2000/svg"
   version="1.1"
   width="100"
   height="50"
   viewBox="0 0 100 50"
   id="Layer_1"
   xml:space="preserve"><metadata
   id="metadata41"><rdf:RDF><cc:Work
       rdf:about=""><dc:format>image/svg+xml</dc:format><dc:type
         rdf:resource="http://purl.org/dc/dcmitype/StillImage" /><dc:title></dc:title></cc:Work></rdf:RDF></metadata><defs
   id="defs39" />
<g
   transform="translate(17.951496,0)"
   id="g3">
	<path
   d="M 49.974,30.164 48.959,21.57 c -0.038,-0.3 -0.278,-0.534 -0.58,-0.559 l -7.723,-0.633 1.116,-3.14 6.045,-0.904 c 0.336,-0.05 0.573,-0.354 0.539,-0.691 L 47.788,10.05 C 47.754,9.701 47.441,9.447 47.092,9.482 46.742,9.519 46.488,9.83 46.525,10.178 l 0.507,4.99 -4.777,0.713 0.899,-2.529 C 43.582,12.151 43.515,10.853 42.966,9.7 42.416,8.545 41.452,7.675 40.252,7.247 L 38.705,6.697 32.023,4.321 30.474,3.772 C 27.991,2.889 25.252,4.19 24.368,6.673 L 23.47,9.202 20.217,5.633 23.76,2.084 C 24.007,1.836 24.007,1.433 23.758,1.186 23.511,0.938 23.108,0.938 22.86,1.187 l -3.969,3.977 c -0.239,0.24 -0.249,0.627 -0.021,0.877 l 4.118,4.517 -1.117,3.14 -6.39,-4.383 C 15.234,9.144 14.899,9.171 14.68,9.382 l -6.213,6.024 c -0.25,0.245 -0.257,0.646 -0.014,0.898 0.244,0.251 0.646,0.258 0.897,0.014 l 5.841,-5.662 6.239,4.281 -1.173,3.298 -5.786,1.004 c -0.227,0.039 -0.412,0.197 -0.49,0.413 L 10.352,29.86 c -0.117,0.332 0.056,0.694 0.387,0.813 0.329,0.117 0.693,-0.056 0.81,-0.386 l 3.509,-9.86 4.714,-0.817 -0.893,2.511 c -0.885,2.483 0.419,5.222 2.902,6.104 l 1.521,0.541 -2.232,10.325 c -0.207,0.058 -0.384,0.211 -0.461,0.429 -0.127,0.356 0.058,0.748 0.414,0.873 0.356,0.128 0.747,-0.059 0.874,-0.413 0.099,-0.278 0.007,-0.576 -0.207,-0.754 l 2.216,-10.246 5.527,1.967 -4.747,9.343 c -0.278,0.003 -0.539,0.177 -0.637,0.455 -0.127,0.355 0.06,0.746 0.415,0.873 0.356,0.128 0.747,-0.059 0.874,-0.415 0.077,-0.218 0.037,-0.45 -0.088,-0.626 l 4.784,-9.416 1.522,0.542 c 2.485,0.881 5.222,-0.419 6.106,-2.902 l 0.893,-2.512 3.141,3.61 -3.506,9.86 c -0.117,0.331 0.056,0.691 0.386,0.812 0.331,0.117 0.693,-0.057 0.812,-0.387 l 3.63,-10.209 c 0.077,-0.216 0.031,-0.458 -0.119,-0.63 l -3.854,-4.431 1.173,-3.298 7.543,0.619 0.955,8.078 c 0.04,0.348 0.356,0.597 0.705,0.556 0.346,-0.042 0.595,-0.358 0.553,-0.705 z m -26.536,-2.023 -1.146,-0.407 0.295,-0.833 c 0.06,-0.164 -0.027,-0.346 -0.192,-0.404 -1.53,-0.545 -2.33,-2.231 -1.785,-3.76 l 1.358,-3.83 5.253,-0.911 0.089,2.343 -1.819,-0.277 c -0.166,-0.024 -0.323,0.083 -0.357,0.248 l -0.402,1.851 c -0.978,-0.083 -1.93,0.497 -2.274,1.465 -0.41,1.154 0.192,2.421 1.346,2.832 l -0.366,1.683 z m 0.313,-4.054 c 0.109,-0.307 0.38,-0.512 0.684,-0.551 0.128,-0.018 0.262,-0.006 0.393,0.04 0.082,0.029 0.155,0.07 0.222,0.119 0.287,0.216 0.415,0.601 0.29,0.957 -0.103,0.285 -0.341,0.479 -0.614,0.54 -0.148,0.034 -0.308,0.027 -0.463,-0.027 -0.059,-0.021 -0.112,-0.048 -0.163,-0.08 -0.33,-0.205 -0.485,-0.617 -0.349,-0.998 z m 1.74,3.553 c -0.07,-0.025 -0.147,-0.021 -0.213,0.01 -0.066,0.033 -0.117,0.089 -0.142,0.158 l -0.296,0.831 -0.8,-0.283 0.384,-1.773 c 0.955,0.052 1.871,-0.522 2.207,-1.471 0.403,-1.132 -0.17,-2.373 -1.283,-2.806 l 0.34,-1.57 1.876,0.285 1.729,0.613 -2.322,6.533 -1.48,-0.527 z m 4.231,2.736 -0.8,-0.285 0.296,-0.833 c 0.051,-0.145 -0.024,-0.303 -0.169,-0.354 l -1.479,-0.526 2.322,-6.531 1.731,0.615 1.63,0.963 -0.727,1.432 c -1.136,-0.365 -2.365,0.233 -2.769,1.366 -0.336,0.948 0.01,1.974 0.786,2.536 l -0.821,1.617 z m 2.919,-3.129 c -0.135,0.382 -0.514,0.604 -0.898,0.555 -0.06,-0.008 -0.119,-0.021 -0.178,-0.042 -0.153,-0.055 -0.281,-0.149 -0.377,-0.27 -0.175,-0.22 -0.235,-0.522 -0.134,-0.806 0.127,-0.356 0.47,-0.575 0.829,-0.56 0.081,0.004 0.165,0.019 0.246,0.048 0.131,0.046 0.242,0.122 0.331,0.216 0.209,0.224 0.29,0.552 0.181,0.859 z m -0.874,2.918 -0.298,0.833 -1.144,-0.407 0.779,-1.535 c 1.153,0.408 2.419,-0.194 2.831,-1.347 0.346,-0.971 -0.025,-2.02 -0.839,-2.573 l 0.858,-1.688 c 0.077,-0.15 0.022,-0.333 -0.123,-0.418 l -1.584,-0.935 1.547,-1.761 3.5,4.021 -1.362,3.83 c -0.545,1.529 -2.231,2.332 -3.762,1.787 -0.163,-0.059 -0.345,0.028 -0.403,0.193 z m 8.226,-9.819 -0.184,0.518 -0.184,0.517 -1.182,3.322 -0.368,1.036 -1.014,2.85 c -0.729,2.052 -2.92,3.172 -4.99,2.609 l 0.19,-0.535 c 1.774,0.461 3.643,-0.505 4.268,-2.263 l 1.425,-4.006 c 0.002,-0.005 0.002,-0.01 0.003,-0.014 0.003,-0.01 0.004,-0.02 0.006,-0.029 0.004,-0.011 0.006,-0.021 0.007,-0.033 10e-4,-0.009 10e-4,-0.019 10e-4,-0.029 0,-0.01 0,-0.021 -10e-4,-0.031 -10e-4,-0.01 -0.003,-0.021 -0.006,-0.031 -0.002,-0.01 -0.003,-0.019 -0.005,-0.028 -0.003,-0.01 -0.007,-0.02 -0.012,-0.031 -0.004,-0.009 -0.008,-0.018 -0.012,-0.026 -0.005,-0.009 -0.01,-0.017 -0.015,-0.026 -0.007,-0.009 -0.014,-0.02 -0.021,-0.029 -0.003,-0.002 -0.004,-0.005 -0.006,-0.008 l -3.844,-4.417 -0.011,-0.014 -0.005,-0.006 c -0.001,0 -0.001,-0.001 -0.002,-0.002 -0.009,-0.009 -0.018,-0.02 -0.027,-0.028 -0.006,-0.004 -0.011,-0.007 -0.015,-0.011 -0.004,-0.002 -0.007,-0.004 -0.01,-0.006 -0.014,-0.01 -0.027,-0.019 -0.042,-0.026 -0.005,-0.002 -0.01,-0.004 -0.015,-0.007 -0.014,-0.006 -0.028,-0.011 -0.042,-0.015 -0.007,-0.002 -0.014,-0.003 -0.021,-0.005 -0.012,-0.003 -0.023,-0.005 -0.036,-0.007 -0.01,0 -0.019,0 -0.026,0 -0.012,0 -0.023,0 -0.034,0.001 -0.01,0 -0.019,0.002 -0.027,0.004 -0.012,0.002 -0.022,0.005 -0.032,0.008 -0.009,0.002 -0.018,0.006 -0.025,0.009 -0.011,0.005 -0.021,0.009 -0.032,0.014 -0.009,0.005 -0.015,0.009 -0.022,0.014 -0.011,0.007 -0.021,0.014 -0.031,0.022 -0.002,0.002 -0.005,0.003 -0.007,0.005 -0.004,0.003 -0.007,0.008 -0.011,0.012 -0.007,0.006 -0.014,0.012 -0.021,0.018 l -1.897,2.16 -1.852,-0.658 c -0.002,0 -0.003,-10e-4 -0.004,-10e-4 -0.002,-0.001 -0.004,-0.001 -0.005,-0.002 l -1.851,-0.658 -0.107,-2.874 c 0,-0.008 -0.002,-0.015 -0.003,-0.022 -10e-4,-0.007 -10e-4,-0.013 -0.002,-0.02 0,-0.004 -0.002,-0.006 -0.002,-0.01 -0.003,-0.013 -0.007,-0.023 -0.01,-0.036 -0.003,-0.007 -0.006,-0.016 -0.009,-0.024 -0.006,-0.012 -0.011,-0.022 -0.017,-0.033 -0.005,-0.007 -0.009,-0.014 -0.013,-0.02 -0.008,-0.011 -0.016,-0.021 -0.024,-0.03 -0.005,-0.006 -0.01,-0.012 -0.015,-0.017 -0.009,-0.009 -0.02,-0.018 -0.029,-0.025 -0.006,-0.005 -0.012,-0.01 -0.017,-0.014 -0.012,-0.007 -0.022,-0.013 -0.034,-0.02 -0.007,-0.003 -0.013,-0.007 -0.02,-0.009 C 27.632,17.323 27.62,17.32 27.61,17.317 27.6,17.314 27.591,17.311 27.583,17.31 c -0.01,-0.002 -0.02,-0.003 -0.029,-0.004 -0.012,-0.002 -0.022,-0.003 -0.036,-0.002 -0.003,0 -0.006,-10e-4 -0.009,-10e-4 -0.007,0 -0.013,0.002 -0.02,0.003 -0.008,0 -0.015,0 -0.022,10e-4 l -5.793,1.004 c -0.004,0.001 -0.007,0.003 -0.011,0.003 -0.012,0.003 -0.023,0.006 -0.036,0.01 -0.008,0.003 -0.017,0.006 -0.024,0.01 -0.01,0.004 -0.021,0.009 -0.03,0.015 -0.008,0.004 -0.017,0.01 -0.023,0.015 -0.009,0.006 -0.017,0.013 -0.025,0.019 -0.007,0.007 -0.014,0.013 -0.021,0.02 -0.009,0.008 -0.015,0.017 -0.021,0.025 -0.006,0.008 -0.012,0.016 -0.018,0.023 -0.006,0.009 -0.01,0.018 -0.015,0.027 -0.005,0.01 -0.01,0.02 -0.014,0.029 -0.002,0.004 -0.004,0.008 -0.007,0.012 l -1.422,4.004 c -0.626,1.759 0.213,3.688 1.879,4.453 l -0.189,0.533 c -1.96,-0.869 -2.952,-3.123 -2.223,-5.175 l 1.012,-2.85 0.368,-1.036 1.182,-3.321 0.185,-0.518 0.185,-0.519 1.181,-3.321 0.367,-1.034 1.013,-2.85 c 0.767,-2.153 3.141,-3.283 5.295,-2.517 l 1.547,0.549 6.683,2.377 1.547,0.55 c 1.041,0.37 1.878,1.125 2.354,2.126 0.476,1.001 0.533,2.126 0.163,3.167 l -1.014,2.849 -0.368,1.036 -1.181,3.324 z M 39.85,8.378 38.302,7.828 34.97,6.644 C 34.967,6.643 34.964,6.641 34.961,6.64 34.958,6.639 34.955,6.639 34.952,6.638 L 31.62,5.453 30.073,4.902 C 29.174,4.583 28.202,4.632 27.338,5.044 26.474,5.455 25.82,6.176 25.502,7.076 l -1.424,4.004 c -10e-4,0.002 -10e-4,0.005 -0.002,0.008 -0.004,0.013 -0.007,0.025 -0.01,0.038 -10e-4,0.01 -0.003,0.018 -0.004,0.027 -0.001,0.01 -0.001,0.02 -0.001,0.03 -0.001,0.011 -0.001,0.022 0,0.034 0.001,0.008 0.003,0.017 0.004,0.024 0.002,0.012 0.005,0.024 0.008,0.036 0.003,0.008 0.006,0.016 0.009,0.022 0.004,0.012 0.009,0.024 0.014,0.035 0.004,0.007 0.009,0.014 0.014,0.021 0.006,0.011 0.014,0.022 0.021,0.032 0.003,0.003 0.004,0.006 0.007,0.009 l 3.857,4.436 c 0.005,0.004 0.01,0.008 0.015,0.012 0.006,0.006 0.01,0.013 0.016,0.018 0.003,0.003 0.007,0.004 0.01,0.007 0.008,0.007 0.017,0.013 0.025,0.019 0.01,0.006 0.018,0.012 0.026,0.016 0.01,0.005 0.02,0.01 0.03,0.014 0.008,0.004 0.018,0.007 0.025,0.01 0.012,0.003 0.023,0.006 0.035,0.008 0.008,10e-4 0.016,0.003 0.023,0.004 0.013,0.002 0.025,0.002 0.038,0.001 0.009,0 0.015,0 0.023,-0.001 0.013,-10e-4 0.024,-0.003 0.037,-0.006 0.007,-10e-4 0.015,-0.003 0.021,-0.005 0.012,-0.003 0.023,-0.008 0.033,-0.012 0.009,-0.004 0.019,-0.008 0.026,-0.011 0.009,-0.005 0.018,-0.011 0.025,-0.017 0.01,-0.006 0.02,-0.013 0.029,-0.021 0.002,-0.002 0.004,-0.003 0.008,-0.005 0.004,-0.003 0.007,-0.008 0.011,-0.012 0.007,-0.006 0.014,-0.011 0.02,-0.018 l 1.897,-2.16 1.859,0.66 c 0.001,10e-4 0.002,10e-4 0.003,10e-4 l 1.848,0.658 0.108,2.874 c 0,0.009 0.003,0.016 0.004,0.024 0.001,0.006 0,0.013 0.001,0.019 10e-4,0.003 0.002,0.007 0.003,0.01 0.002,0.012 0.006,0.023 0.01,0.035 0.003,0.009 0.005,0.018 0.009,0.026 0.004,0.01 0.01,0.019 0.015,0.029 0.005,0.009 0.01,0.018 0.016,0.025 0.005,0.008 0.011,0.015 0.019,0.023 0.006,0.009 0.014,0.018 0.022,0.024 0.006,0.007 0.013,0.012 0.019,0.017 0.009,0.008 0.018,0.015 0.027,0.022 0.007,0.005 0.014,0.008 0.021,0.012 0.011,0.006 0.021,0.012 0.034,0.017 0.007,0.003 0.015,0.005 0.021,0.007 0.012,0.005 0.025,0.009 0.037,0.011 0.008,0.002 0.016,0.002 0.022,0.003 0.014,0.002 0.026,0.003 0.041,0.003 0.003,0 0.005,0 0.008,0 0.006,0 0.012,-0.002 0.019,-0.002 0.007,-10e-4 0.016,0 0.023,-0.002 l 5.793,-1.004 c 0.005,0 0.009,-0.002 0.013,-0.003 0.01,-0.002 0.021,-0.006 0.03,-0.009 0.011,-0.003 0.021,-0.007 0.031,-0.011 0.008,-0.004 0.016,-0.008 0.023,-0.013 0.01,-0.005 0.021,-0.011 0.029,-0.018 0.008,-0.005 0.015,-0.011 0.021,-0.017 0.009,-0.007 0.018,-0.014 0.025,-0.022 0.007,-0.007 0.013,-0.014 0.019,-0.021 0.006,-0.009 0.014,-0.017 0.019,-0.027 0.007,-0.008 0.011,-0.017 0.016,-0.025 0.005,-0.008 0.01,-0.019 0.014,-0.029 0.002,-0.004 0.004,-0.007 0.006,-0.011 l 1.423,-4.004 C 42.685,11.091 41.708,9.04 39.85,8.378 z M 32.14,13.626 30.409,13.01 28.748,12.029 30.554,6.951 C 30.613,6.786 30.527,6.604 30.361,6.545 30.196,6.487 30.014,6.574 29.956,6.738 l -1.894,5.326 c -0.05,0.143 0.008,0.301 0.139,0.379 L 29.785,13.379 28.237,15.14 24.74,11.119 26.103,7.29 C 26.364,6.548 26.901,5.956 27.611,5.617 28.32,5.279 29.121,5.237 29.86,5.5 l 1.548,0.55 3.04,1.082 -2.308,6.494 z m 9.284,-0.889 -1.36,3.831 -5.252,0.91 -0.089,-2.343 1.819,0.275 c 0.15,0.022 0.296,-0.064 0.348,-0.208 L 38.783,9.879 C 38.843,9.713 38.757,9.53 38.592,9.473 38.425,9.414 38.244,9.499 38.186,9.665 l -1.806,5.079 -1.906,-0.288 -1.734,-0.616 2.31,-6.494 3.042,1.082 1.547,0.55 c 1.527,0.543 2.33,2.229 1.785,3.759 z"
   id="path5" />
	<path
   d="M 31.408,6.051 29.86,5.5 C 29.121,5.237 28.32,5.278 27.609,5.616 26.899,5.954 26.362,6.547 26.101,7.289 l -1.363,3.829 3.497,4.021 1.548,-1.761 -1.584,-0.936 C 28.068,12.364 28.011,12.206 28.06,12.063 l 1.894,-5.326 c 0.059,-0.164 0.24,-0.251 0.405,-0.193 0.166,0.059 0.252,0.241 0.193,0.406 l -1.806,5.078 1.661,0.981 1.731,0.616 2.309,-6.493 -3.039,-1.081 z m -8.952,17.575 c 0.345,-0.968 1.297,-1.548 2.274,-1.465 l 0.402,-1.851 c 0.034,-0.165 0.191,-0.272 0.357,-0.248 l 1.819,0.277 -0.089,-2.343 -5.253,0.911 -1.358,3.83 c -0.545,1.529 0.255,3.215 1.785,3.76 0.165,0.059 0.252,0.24 0.192,0.404 l -0.295,0.833 1.146,0.407 0.364,-1.684 c -1.152,-0.41 -1.754,-1.677 -1.344,-2.831 z m 9.013,7.372 0.298,-0.833 c 0.059,-0.165 0.24,-0.252 0.404,-0.193 1.53,0.545 3.217,-0.258 3.762,-1.787 l 1.362,-3.83 -3.5,-4.021 -1.547,1.761 1.584,0.935 c 0.146,0.086 0.2,0.268 0.123,0.418 l -0.858,1.688 c 0.813,0.554 1.185,1.603 0.839,2.573 -0.412,1.152 -1.678,1.755 -2.831,1.347 l -0.779,1.535 1.143,0.407 z m -3.905,-9.978 -1.876,-0.285 -0.34,1.57 c 1.113,0.434 1.687,1.674 1.283,2.806 -0.336,0.948 -1.252,1.522 -2.207,1.471 l -0.384,1.773 0.8,0.283 0.296,-0.831 c 0.024,-0.069 0.075,-0.125 0.142,-0.158 0.065,-0.031 0.143,-0.035 0.213,-0.01 l 1.479,0.526 2.322,-6.533 -1.728,-0.612 z M 42.393,9.972 C 41.917,8.971 41.08,8.216 40.039,7.846 L 38.492,7.296 31.81,4.918 30.263,4.369 C 28.109,3.603 25.735,4.732 24.968,6.886 l -1.013,2.85 -0.367,1.034 -1.181,3.321 -0.185,0.519 -0.185,0.518 -1.182,3.321 -0.368,1.036 -1.012,2.85 c -0.729,2.052 0.263,4.306 2.223,5.175 l 0.189,-0.533 C 20.221,26.212 19.382,24.284 20.008,22.524 L 21.43,18.52 c 0.003,-0.004 0.005,-0.008 0.007,-0.012 0.004,-0.01 0.009,-0.02 0.014,-0.029 0.005,-0.009 0.009,-0.018 0.015,-0.027 0.006,-0.008 0.012,-0.016 0.018,-0.023 0.007,-0.008 0.013,-0.017 0.021,-0.025 0.008,-0.007 0.015,-0.013 0.021,-0.02 0.009,-0.006 0.017,-0.013 0.025,-0.019 0.007,-0.005 0.016,-0.01 0.023,-0.015 0.01,-0.006 0.021,-0.011 0.03,-0.015 0.008,-0.004 0.016,-0.007 0.024,-0.01 0.013,-0.004 0.024,-0.007 0.036,-0.01 0.004,0 0.007,-0.002 0.011,-0.003 l 5.793,-1.004 c 0.008,-0.001 0.015,-0.001 0.022,-0.001 0.007,-10e-4 0.013,-0.003 0.02,-0.003 0.003,0 0.006,0.001 0.009,0.001 0.014,-0.001 0.024,0 0.036,0.002 0.01,0.001 0.02,0.002 0.029,0.004 0.009,0.001 0.018,0.004 0.027,0.007 0.009,0.003 0.022,0.007 0.034,0.012 0.007,0.002 0.013,0.006 0.02,0.009 0.012,0.007 0.022,0.013 0.034,0.02 0.005,0.004 0.011,0.009 0.017,0.014 0.01,0.007 0.021,0.016 0.029,0.025 0.005,0.005 0.01,0.011 0.015,0.017 0.009,0.009 0.017,0.02 0.024,0.03 0.004,0.006 0.008,0.013 0.013,0.02 0.006,0.011 0.011,0.021 0.017,0.033 0.003,0.008 0.006,0.017 0.009,0.024 0.003,0.013 0.007,0.023 0.01,0.036 0,0.004 0.002,0.006 0.002,0.01 10e-4,0.007 10e-4,0.013 0.002,0.02 0.001,0.008 0.003,0.015 0.003,0.022 l 0.107,2.874 1.853,0.656 c 10e-4,10e-4 0.003,10e-4 0.005,0.002 0.001,0 0.002,0.001 0.004,0.001 l 1.852,0.658 1.897,-2.16 c 0.007,-0.006 0.014,-0.012 0.021,-0.018 0.004,-0.004 0.007,-0.009 0.011,-0.012 0.002,-0.002 0.005,-0.003 0.007,-0.005 0.01,-0.009 0.021,-0.016 0.031,-0.022 0.008,-0.005 0.014,-0.009 0.022,-0.014 0.011,-0.005 0.021,-0.009 0.032,-0.014 0.008,-0.003 0.017,-0.007 0.025,-0.009 0.01,-0.003 0.021,-0.006 0.032,-0.008 0.009,-0.002 0.018,-0.004 0.027,-0.004 0.011,-0.001 0.022,-0.001 0.034,-0.001 0.008,0 0.017,0 0.026,0 0.013,0.002 0.024,0.004 0.036,0.007 0.007,0.002 0.014,0.003 0.021,0.005 0.014,0.004 0.028,0.009 0.042,0.015 0.005,0.003 0.01,0.005 0.015,0.007 0.015,0.008 0.028,0.017 0.042,0.026 0.003,0.002 0.006,0.004 0.01,0.006 0.004,0.004 0.009,0.007 0.015,0.011 0.01,0.009 0.019,0.02 0.027,0.028 10e-4,0.001 10e-4,0.002 0.002,0.002 l 0.005,0.006 c 0.003,0.005 0.008,0.009 0.011,0.014 l 3.844,4.417 c 0.002,0.003 0.003,0.006 0.006,0.008 0.007,0.01 0.014,0.021 0.021,0.029 0.005,0.009 0.01,0.017 0.015,0.026 0.004,0.009 0.008,0.018 0.012,0.026 0.005,0.011 0.009,0.021 0.012,0.031 0.002,0.01 0.003,0.019 0.005,0.028 0.003,0.01 0.005,0.02 0.006,0.031 10e-4,0.011 10e-4,0.021 10e-4,0.031 0,0.01 0,0.02 -10e-4,0.029 -10e-4,0.012 -0.003,0.022 -0.007,0.033 -0.002,0.009 -0.003,0.019 -0.006,0.029 -10e-4,0.004 -10e-4,0.009 -0.003,0.014 l -1.425,4.006 c -0.625,1.758 -2.493,2.724 -4.268,2.263 l -0.19,0.535 c 2.07,0.563 4.262,-0.558 4.99,-2.609 l 1.014,-2.85 0.368,-1.036 1.182,-3.322 0.184,-0.517 0.184,-0.518 1.181,-3.322 0.368,-1.036 1.014,-2.849 c 0.367,-1.04 0.309,-2.164 -0.166,-3.166 z m -0.371,2.979 -1.422,4.004 c -0.002,0.004 -0.004,0.007 -0.006,0.011 -0.004,0.01 -0.009,0.021 -0.014,0.029 -0.005,0.01 -0.009,0.019 -0.016,0.025 -0.005,0.01 -0.013,0.018 -0.019,0.027 -0.007,0.008 -0.012,0.015 -0.019,0.021 -0.008,0.008 -0.017,0.015 -0.025,0.022 -0.007,0.006 -0.014,0.012 -0.021,0.017 -0.009,0.007 -0.02,0.013 -0.029,0.018 -0.008,0.005 -0.016,0.009 -0.023,0.013 -0.01,0.004 -0.021,0.008 -0.031,0.011 -0.01,0.003 -0.021,0.007 -0.03,0.009 -0.004,10e-4 -0.008,0.003 -0.013,0.003 l -5.793,1.004 c -0.008,0.002 -0.017,0.001 -0.023,0.002 -0.007,0 -0.013,0.002 -0.019,0.002 -0.003,0 -0.005,0 -0.008,0 -0.015,0 -0.027,-0.001 -0.041,-0.003 C 34.463,18.165 34.455,18.165 34.448,18.163 34.436,18.161 34.423,18.157 34.411,18.152 34.404,18.15 34.396,18.148 34.39,18.145 34.376,18.14 34.368,18.134 34.356,18.128 34.348,18.124 34.341,18.121 34.335,18.116 34.325,18.109 34.316,18.102 34.308,18.094 34.301,18.089 34.295,18.084 34.289,18.077 34.28,18.07 34.272,18.061 34.267,18.053 34.259,18.045 34.253,18.038 34.248,18.03 34.242,18.022 34.237,18.013 34.232,18.005 34.227,17.995 34.221,17.986 34.217,17.976 34.213,17.967 34.211,17.958 34.208,17.95 34.204,17.938 34.2,17.928 34.198,17.915 c -10e-4,-0.003 -0.002,-0.007 -0.003,-0.01 -10e-4,-0.006 0,-0.013 -10e-4,-0.019 C 34.193,17.878 34.19,17.871 34.19,17.862 L 34.082,14.988 32.234,14.33 c -0.001,0 -0.002,0 -0.003,-10e-4 l -1.859,-0.66 -1.897,2.16 c -0.006,0.007 -0.013,0.012 -0.02,0.018 -0.004,0.004 -0.007,0.009 -0.011,0.012 -0.004,0.002 -0.006,0.003 -0.008,0.005 -0.01,0.008 -0.02,0.015 -0.029,0.021 -0.008,0.006 -0.017,0.012 -0.025,0.017 -0.008,0.003 -0.018,0.007 -0.026,0.011 -0.01,0.005 -0.021,0.009 -0.033,0.012 -0.007,0.002 -0.015,0.004 -0.021,0.005 -0.013,0.003 -0.024,0.005 -0.037,0.006 -0.009,10e-4 -0.015,10e-4 -0.023,10e-4 -0.013,0.001 -0.025,0.001 -0.038,-10e-4 C 28.196,15.935 28.188,15.933 28.181,15.932 28.169,15.93 28.158,15.927 28.146,15.924 28.138,15.921 28.128,15.918 28.121,15.914 28.11,15.91 28.1,15.905 28.091,15.9 28.082,15.896 28.074,15.89 28.065,15.884 28.056,15.878 28.047,15.872 28.04,15.865 28.037,15.862 28.033,15.861 28.03,15.858 28.024,15.853 28.02,15.846 28.014,15.84 28.009,15.836 28.004,15.832 27.999,15.828 L 24.142,11.392 C 24.139,11.389 24.138,11.386 24.135,11.383 24.127,11.373 24.119,11.362 24.114,11.351 24.109,11.344 24.104,11.337 24.1,11.33 24.095,11.319 24.09,11.308 24.086,11.295 24.083,11.288 24.08,11.28 24.077,11.273 24.074,11.261 24.071,11.249 24.069,11.237 24.068,11.229 24.066,11.22 24.065,11.213 c -0.001,-0.012 -0.001,-0.022 0,-0.034 0,-0.011 0,-0.021 10e-4,-0.03 0.001,-0.009 0.003,-0.017 0.004,-0.027 0.003,-0.013 0.006,-0.025 0.01,-0.038 0.001,-0.003 0.001,-0.006 0.002,-0.008 l 1.424,-4.004 c 0.318,-0.9 0.972,-1.622 1.836,-2.032 0.864,-0.412 1.836,-0.46 2.735,-0.142 l 1.547,0.551 3.332,1.185 c 0.003,10e-4 0.006,10e-4 0.009,0.002 0.003,10e-4 0.006,0.003 0.009,0.004 l 3.332,1.185 1.548,0.55 c 1.854,0.665 2.831,2.716 2.168,4.576 z m -12.13,8.896 -2.322,6.531 1.479,0.526 c 0.145,0.051 0.22,0.209 0.169,0.354 l -0.296,0.833 0.8,0.285 0.822,-1.617 c -0.776,-0.563 -1.122,-1.588 -0.786,-2.536 0.403,-1.133 1.633,-1.731 2.769,-1.366 l 0.727,-1.432 -1.63,-0.963 -1.732,-0.615 z m 9.745,-12.87 -1.547,-0.55 -3.042,-1.082 -2.31,6.494 1.734,0.616 1.906,0.288 1.806,-5.079 c 0.059,-0.166 0.239,-0.251 0.406,-0.192 0.165,0.057 0.251,0.24 0.191,0.406 l -1.893,5.323 c -0.052,0.144 -0.197,0.23 -0.348,0.208 l -1.819,-0.275 0.089,2.343 5.252,-0.91 1.36,-3.831 C 41.969,11.207 41.166,9.521 39.637,8.977 z M 24.262,25.164 c 0.155,0.054 0.314,0.061 0.463,0.027 0.273,-0.06 0.512,-0.255 0.614,-0.54 0.125,-0.356 -0.003,-0.741 -0.29,-0.957 -0.066,-0.049 -0.14,-0.09 -0.222,-0.119 -0.131,-0.046 -0.265,-0.058 -0.393,-0.04 -0.304,0.039 -0.574,0.244 -0.684,0.551 -0.136,0.381 0.019,0.793 0.348,0.998 0.051,0.032 0.105,0.059 0.164,0.08 z m 7.302,2.595 c 0.059,0.021 0.118,0.034 0.178,0.042 0.385,0.049 0.764,-0.173 0.898,-0.555 0.109,-0.307 0.028,-0.635 -0.181,-0.858 -0.089,-0.094 -0.2,-0.17 -0.331,-0.216 -0.081,-0.029 -0.165,-0.044 -0.246,-0.048 -0.359,-0.016 -0.702,0.203 -0.829,0.56 -0.102,0.283 -0.041,0.586 0.134,0.806 0.096,0.12 0.224,0.215 0.377,0.269 z m -3.525,8.906 1.581,0.424 -2.448,3.53 5.323,-4.26 -1.581,-0.424 2.451,-3.53 -5.326,4.26 z m -8.434,-4.751 -1.492,-0.669 1.439,6.666 0.329,-4.284 1.492,0.67 -1.439,-6.667 -0.329,4.284 z"
   id="path7"
   style="fill:#fff200" />
	<g
   id="g9">
		<path
   d="m 54.689,41.72 c 0,0 -1.365,0 -1.372,0 0,-0.478 0,-1.77 0,-1.77 h -1.972 v 1.77 h -2.744 c -1.194,0 -2.165,0.971 -2.165,2.165 v 1.18 c 0,0.064 0.004,0.13 0.01,0.193 H 44.489 V 41.72 h -1.973 c 0,0 0,2.914 0,3.538 -0.087,0 -1.372,0 -1.372,0 -0.107,10e-4 -0.194,-0.087 -0.194,-0.193 V 41.72 h -5.304 c -1.194,0 -2.166,0.971 -2.166,2.165 v 1.18 c 0,0.064 0.004,0.13 0.009,0.193 h -0.688 c -0.106,0 -0.192,-0.087 -0.192,-0.193 v -5.114 h -1.973 v 3.706 C 30.522,42.569 29.601,41.72 28.483,41.72 h -3.344 v 1.937 C 25.025,42.57 24.102,41.72 22.986,41.72 h -6.679 c -1.117,0 -2.039,0.85 -2.153,1.938 V 41.72 h -1.971 c 0,0 0,2.914 0,3.538 -0.088,0 -0.195,0 -0.195,0 h -0.44 -0.738 c -0.107,0 -0.194,-0.087 -0.194,-0.193 V 41.72 H 8.643 v 1.938 C 8.529,42.57 7.607,41.72 6.491,41.72 c 0,0 -1.366,0 -1.375,0 0.001,-0.478 0,-1.77 0,-1.77 h -1.97 v 7.279 h 3.346 c 1.142,0 2.079,-0.889 2.159,-2.012 0.077,1.123 1.017,2.012 2.159,2.012 h 3.344 v -1.95 c 0.078,0.776 0.566,1.433 1.246,1.749 -0.269,0 -0.963,0 -0.963,0 V 49 l 3.049,0 c 1.116,0 2.037,-0.849 2.153,-1.937 v 0.167 h 1.972 c 0,0 0,-2.914 0,-3.538 0.088,0 1.373,0 1.373,0 0.107,0 0.193,0.086 0.193,0.193 v 3.345 h 1.96 L 25.139,49 h 1.972 c 0,0 0,-1.292 -0.001,-1.77 0.088,0 1.373,0 1.373,0 1.143,0 2.08,-0.889 2.159,-2.012 0.08,1.124 1.019,2.012 2.159,2.012 h 0.986 l 10e-4,-1.056 c 0.378,0.633 1.068,1.056 1.858,1.056 h 3.345 v -1.948 c 0.077,0.775 0.566,1.432 1.244,1.747 -0.268,0 -0.962,0 -0.962,0 V 49 h 3.051 c 1.116,0 2.039,-0.851 2.152,-1.939 v 0.17 h 1.973 l -10e-4,-1.938 c 0.114,1.088 1.036,1.938 2.153,1.938 h 4.716 c 0,0 0,-2.99 0,-3.538 0.007,0 1.372,0 1.372,0 0.107,0 0.194,0.086 0.194,0.193 v 3.345 h 1.971 v -3.345 c 0,-1.194 -0.97,-2.166 -2.165,-2.166 z M 6.683,45.065 c 0,0.106 -0.087,0.194 -0.191,0.193 0,0 -0.897,0 -1.374,0 L 5.117,43.692 c 0.009,0 1.375,0 1.375,0 0.104,0 0.191,0.086 0.191,0.193 v 1.18 z m 10.998,0.193 c -0.141,0 -1.374,0 -1.374,0 -0.106,0 -0.192,-0.087 -0.192,-0.193 v -1.18 c 0,-0.107 0.086,-0.193 0.192,-0.193 0,0 0.896,0 1.374,0 v 1.566 z m 10.995,-0.193 c 0,0.106 -0.087,0.194 -0.193,0.194 0,0 -1.285,-10e-4 -1.373,-10e-4 l 0.001,-1.566 c 0.087,0 1.372,0 1.372,0 0.106,0 0.193,0.086 0.193,0.193 v 1.18 z m 8.343,0.193 c -0.478,0 -1.372,0 -1.372,0 -0.107,10e-4 -0.194,-0.087 -0.194,-0.193 v -1.18 c 0,-0.107 0.087,-0.193 0.193,-0.193 0,0 1.286,0 1.373,0 v 1.566 z m 11.583,0 c -0.107,0 -0.193,-0.087 -0.193,-0.193 v -1.18 c 0,-0.107 0.086,-0.193 0.194,-0.193 h 2.743 v 1.566 h -2.744 z"
   id="path11"
   style="fill:#efe92a" />
		<g
   id="g13">
			<path
   d="m 12.577,45.655 h -0.294 l 0,0 h -0.296 l 0,0 h -0.44 -0.737 c -0.326,0 -0.59,-0.264 -0.59,-0.59 V 42.117 H 9.04 v 2.948 c 0,0.977 0.792,1.769 1.77,1.769 h 0.737 0.44 0.296 0.294 0.296 0.884 v -4.717 h -1.18 v 3.538 z"
   id="path15" />
			<path
   d="M 22.984,42.117 H 21.952 21.806 21.51 21.215 20.626 20.035 v 4.717 h 1.18 v -3.538 h 0.295 0.296 0.146 1.032 c 0.326,0 0.59,0.264 0.59,0.59 v 2.948 h 1.18 v -2.948 c 0,-0.978 -0.792,-1.769 -1.77,-1.769 z"
   id="path17" />
			<path
   d="M 6.491,42.117 H 5.164 4.721 l 0.001,-1.771 h -1.18 v 1.771 1.179 2.359 1.179 h 1.18 1.77 c 0.977,0 1.768,-0.792 1.768,-1.769 v -1.18 C 8.259,42.908 7.467,42.117 6.491,42.117 z m 0.588,2.948 c 0,0.326 -0.264,0.59 -0.588,0.59 H 4.721 V 43.296 H 5.163 6.49 c 0.324,0 0.588,0.264 0.588,0.59 v 1.179 z"
   id="path19" />
			<path
   d="m 56.458,45.065 v -1.18 c 0,-0.978 -0.79,-1.769 -1.769,-1.769 h -1.327 -0.441 v -1.771 h -1.18 v 1.771 1.179 2.359 1.179 h 1.18 v -1.179 -2.359 h 0.441 1.327 c 0.325,0 0.59,0.264 0.59,0.59 v 1.18 1.769 h 1.179 v -1.769 z"
   id="path21" />
			<path
   d="m 28.482,42.117 h -0.885 -0.294 l 0,0 h -0.295 l 0,0 h -0.295 -0.442 -0.738 v 6.487 h 1.181 v -1.771 h 0.295 l 0,0 h 0.295 l 0,0 h 0.294 0.885 c 0.978,0 1.77,-0.792 1.77,-1.769 v -1.18 C 30.252,42.908 29.46,42.117 28.482,42.117 z m 0.59,2.948 c 0,0.326 -0.264,0.59 -0.59,0.59 h -0.885 -0.294 -0.295 -0.295 v -2.359 h 0.295 0.295 0.294 0.885 c 0.326,0 0.59,0.264 0.59,0.59 v 1.179 z"
   id="path23" />
			<path
   d="m 32.801,45.655 0,0 c -0.324,0 -0.589,-0.264 -0.589,-0.59 v -4.719 h -1.179 v 4.719 c 0,0.977 0.791,1.769 1.768,1.769 l 0,0 h 0.59 v -1.179 h -0.59 z"
   id="path25" />
			<path
   d="m 18.076,42.117 h -1.77 c -0.977,0 -1.769,0.791 -1.769,1.769 v 1.18 c 0,0.977 0.792,1.769 1.77,1.769 h 0.884 0.589 0.296 c 0,0.325 -0.264,0.591 -0.59,0.591 h -1.18 l 0,0 h -1.475 v 1.18 h 1.476 l 0,0 h 1.179 c 0.978,0 1.77,-0.794 1.77,-1.771 l 0,0 V 42.118 H 18.37 18.076 z m -0.296,3.538 h -0.589 -0.885 c -0.324,0 -0.59,-0.264 -0.59,-0.59 v -1.18 c 0,-0.326 0.266,-0.59 0.59,-0.59 h 1.77 v 2.359 H 17.78 z"
   id="path27" />
			<path
   d="m 42.912,42.117 v 3.538 h -0.293 -0.295 -0.443 -0.736 c -0.327,0 -0.591,-0.264 -0.591,-0.59 l 0,0 v -2.948 h -1.18 v 2.948 l 0,0 c 0,0.977 0.793,1.769 1.771,1.769 h 0.736 0.443 0.295 0.293 c 0,0.325 -0.263,0.591 -0.588,0.591 h -1.18 l 0,0 H 39.67 v 1.18 h 1.475 l 0,0 h 1.18 c 0.977,0 1.769,-0.794 1.769,-1.771 l 0,0 v -4.717 h -1.182 z"
   id="path29" />
			<path
   d="M 37.416,42.117 H 37.119 36.825 36.53 35.645 c -0.977,0 -1.77,0.791 -1.77,1.769 v 1.18 c 0,0.977 0.793,1.769 1.77,1.769 h 1.771 1.179 v -1.179 -3.538 h -0.738 -0.441 z m -1.77,3.538 c -0.326,0 -0.59,-0.264 -0.59,-0.59 v -1.18 c 0,-0.326 0.264,-0.59 0.59,-0.59 h 0.885 0.295 0.294 0.297 v 2.359 h -1.771 z"
   id="path31" />
			<path
   d="m 50.96,45.655 h -0.589 -1.769 c -0.327,0 -0.591,-0.264 -0.591,-0.59 v -1.18 c 0,-0.326 0.264,-0.59 0.591,-0.59 h 2.357 v -1.179 h -2.358 c -0.977,0 -1.77,0.791 -1.77,1.769 v 1.18 c 0,0.977 0.793,1.769 1.77,1.769 h 1.77 0.589 v -1.179 z"
   id="path33" />
			<rect
   width="1.1799999"
   height="1.179"
   x="44.873001"
   y="45.654999"
   id="rect35" />
		</g>
	</g>
</g>
</svg>