<?xml version="1.0" encoding="UTF-8" standalone="no"?>
<!-- Created with Inkscape (http://www.inkscape.org/) -->

<svg
   xmlns:dc="http://purl.org/dc/elements/1.1/"
   xmlns:cc="http://creativecommons.org/ns#"
   xmlns:rdf="http://www.w3.org/1999/02/22-rdf-syntax-ns#"
   xmlns:svg="http://www.w3.org/2000/svg"
   xmlns="http://www.w3.org/2000/svg"
   version="1.1"
   width="100"
   height="50"
   viewBox="0 0 100 50"
   id="Layer_1"
   xml:space="preserve"><metadata
   id="metadata57"><rdf:RDF><cc:Work
       rdf:about=""><dc:format>image/svg+xml</dc:format><dc:type
         rdf:resource="http://purl.org/dc/dcmitype/StillImage" /><dc:title></dc:title></cc:Work></rdf:RDF></metadata><defs
   id="defs55" />
<g
   id="g3">
	<path
   d="m 92.601,13.938 v 19.997 h 5.628 L 98.232,7.01 c 0,0 -5.631,-0.014 -5.631,6.928"
   id="path5"
   style="fill-rule:evenodd" />
	<path
   d="m 83.172,28.386 h -9.281 c 0,0 -2.956,0.166 -2.956,-2.243 h -4.093 c 0,0 -0.002,-0.023 -0.002,1.811 0,3.492 1.437,6.121 6.885,6.004 h 16.349 c -0.001,-10e-4 0.013,-5.572 -6.902,-5.572 M 73.728,12.615 c 6.917,0 8.287,-0.011 9.283,0 0.994,0.01 2.954,-0.246 2.98,2.051 l 4.069,-0.001 v -1.623 c 0,-3.517 -1.437,-6.158 -6.885,-6.039 H 66.827 c 0,-0.001 -0.014,5.612 6.901,5.612"
   id="path7"
   style="fill-rule:evenodd" />
	<path
   d="m 56.936,17.005 c 0,0 2.369,-0.1 2.369,1.891 v 10.41 h 3.337 c 0,0 0.002,-6.522 0.002,-11.945 0,-4.782 -3.573,-4.99 -5.603,-4.99 -1.049,0 -3.128,-0.002 -4.983,-0.002 -0.005,0 -0.019,-2.486 0.007,-4.754 C 52.123,2.542 50.047,2.147 46.118,2.15 42.985,2.152 40.03,2.148 40.03,2.148 c 0,0 0.032,20.844 0.032,28.074 0,2.084 1.626,3.784 4.085,3.76 5.058,-0.051 18.493,-0.009 18.493,-0.009 l 10e-4,-4.666 H 59.304 43.394 C 43.399,29.288 43.38,8.623 43.38,8.623 c 0,-1.332 1.119,-1.807 1.826,-1.797 l 1.691,-0.003 c 1,-0.004 1.795,0.754 1.787,1.819 l 0.008,8.375 c 1.031,-0.001 8.244,-0.012 8.244,-0.012"
   id="path9"
   style="fill:#d80b8c;fill-rule:evenodd" />
	<path
   d="m 55.915,25.829 h -7.238 v -5.297 c 0,0 4.919,0.01 5.606,0.01 0.966,0.026 1.705,0.458 1.628,1.727 0.009,0.428 0.004,3.56 0.004,3.56"
   id="path11"
   style="fill:#d80b8c;fill-rule:evenodd" />
	<path
   d="m 16.339,12.339 v 4.655 L 8.348,16.988 c -1.931,-0.019 -2.535,0.663 -2.531,1.938 0.002,1.709 0,10.349 0,10.349 h 7.155 c 0,0 0.01,-6.463 0.001,-8.75 h 3.376 l -0.01,8.75 h 7.17 l 0.004,-1.204 h 0.021 c 0.021,-2.046 -0.002,-7.545 -0.002,-7.545 h 3.335 l 0.004,8.75 h 7.161 c -0.004,-0.021 0.012,-10.448 0.008,-10.468 -0.165,-1.304 -1.178,-1.723 -1.89,-1.812 -1.023,-0.014 -15.812,0 -15.812,0 v -4.657 c 0,0 13.178,-0.012 16.318,-0.003 2.978,0.102 4.704,0.865 4.724,4.968 0.003,0.172 0.011,15.964 0.013,16.631 -0.109,0 -10.522,0 -10.522,0 H 23.51 16.34 12.972 c 0,0 -3.488,0.002 -4.021,0.002 C 4.329,33.935 2.431,33.003 2.438,29.484 L 2.431,12.345 c 0,-0.021 13.908,-0.006 13.908,-0.006"
   id="path13"
   style="fill:#d80b8c" />
	<rect
   width="0.025"
   height="0.0089999996"
   x="15.713"
   y="25.854"
   id="rect15"
   style="fill:#d80b8c" />
	<path
   d="m 2.568,46.849 v -5.831 h 1.708 v 0.513 c 0.19,-0.223 0.425,-0.393 0.71,-0.502 0.282,-0.111 0.609,-0.166 0.98,-0.166 0.324,0 0.614,0.063 0.874,0.192 0.26,0.128 0.484,0.326 0.674,0.587 0.258,-0.261 0.545,-0.459 0.859,-0.587 0.315,-0.129 0.657,-0.192 1.021,-0.192 0.432,0 0.804,0.089 1.12,0.264 0.453,0.263 0.682,0.689 0.682,1.271 v 4.451 H 9.485 v -3.406 c 0,-0.418 -0.064,-0.723 -0.201,-0.909 -0.136,-0.191 -0.361,-0.287 -0.677,-0.287 -0.279,0 -0.495,0.092 -0.646,0.279 -0.151,0.187 -0.225,0.436 -0.225,0.739 v 3.584 H 6.028 v -3.646 c 0,-0.325 -0.07,-0.563 -0.209,-0.722 -0.141,-0.158 -0.349,-0.234 -0.628,-0.234 -0.301,0 -0.53,0.079 -0.683,0.239 -0.154,0.162 -0.231,0.408 -0.231,0.736 v 3.627 H 2.568 z"
   id="path17" />
	<path
   d="m 13.9,43.233 h 2.331 c -0.024,-0.385 -0.162,-0.677 -0.419,-0.871 -0.205,-0.163 -0.454,-0.243 -0.748,-0.243 -0.277,0 -0.522,0.089 -0.735,0.272 -0.248,0.204 -0.392,0.486 -0.429,0.842 m 4.038,1.062 h -4.017 c 0.01,0.505 0.156,0.886 0.441,1.137 0.225,0.213 0.504,0.318 0.834,0.318 0.3,0 0.553,-0.084 0.768,-0.251 0.167,-0.128 0.387,-0.385 0.658,-0.77 l 1.283,0.67 c -0.577,1.07 -1.522,1.604 -2.834,1.604 -0.886,0 -1.587,-0.279 -2.106,-0.834 -0.507,-0.525 -0.758,-1.212 -0.758,-2.062 0,-1.022 0.254,-1.819 0.763,-2.392 0.508,-0.568 1.208,-0.854 2.101,-0.854 0.998,0 1.74,0.345 2.231,1.036 0.418,0.593 0.629,1.392 0.636,2.398"
   id="path19" />
	<path
   d="m 22.68,43.813 c 0,-0.568 -0.097,-0.992 -0.295,-1.273 -0.197,-0.279 -0.499,-0.421 -0.9,-0.421 -0.387,0 -0.681,0.15 -0.878,0.457 -0.198,0.301 -0.297,0.751 -0.297,1.356 0,0.604 0.099,1.06 0.297,1.359 0.198,0.305 0.491,0.458 0.878,0.458 0.402,0 0.703,-0.162 0.9,-0.487 0.198,-0.325 0.295,-0.807 0.295,-1.449 m 1.71,-4.774 v 7.81 h -1.637 l -0.029,-0.572 c -0.19,0.243 -0.415,0.425 -0.676,0.546 -0.258,0.123 -0.557,0.182 -0.893,0.182 -0.746,0 -1.34,-0.239 -1.787,-0.724 -0.499,-0.525 -0.753,-1.294 -0.77,-2.304 -0.016,-1.066 0.245,-1.875 0.785,-2.425 0.448,-0.458 1.01,-0.689 1.692,-0.689 0.336,0 0.64,0.053 0.906,0.152 0.269,0.106 0.5,0.26 0.697,0.466 V 39.04 h 1.712 z"
   id="path21" />
	<path
   d="m 25.811,41.018 h 1.709 v 5.831 h -1.709 v -5.831 z m 1.709,-0.664 h -1.709 v -1.315 h 1.709 v 1.315 z"
   id="path23" />
	<path
   d="m 32.224,44.41 v -0.402 l -1.145,0.327 c -0.546,0.155 -0.818,0.407 -0.818,0.757 0,0.219 0.068,0.382 0.201,0.494 0.134,0.108 0.333,0.164 0.596,0.164 0.348,0 0.63,-0.117 0.843,-0.346 0.216,-0.231 0.323,-0.559 0.323,-0.994 m 1.652,-1.859 v 3.082 c 0,0.546 0.05,0.953 0.154,1.216 h -1.588 c -0.06,-0.182 -0.105,-0.382 -0.133,-0.605 -0.138,0.224 -0.391,0.404 -0.756,0.553 -0.335,0.14 -0.667,0.208 -0.995,0.208 -0.578,0 -1.041,-0.147 -1.389,-0.449 -0.375,-0.313 -0.559,-0.742 -0.559,-1.284 0,-0.662 0.267,-1.168 0.797,-1.514 0.454,-0.292 1.185,-0.507 2.193,-0.646 l 0.624,-0.09 v -0.479 c 0,-0.21 -0.066,-0.365 -0.202,-0.468 -0.134,-0.104 -0.334,-0.154 -0.603,-0.154 -0.276,0 -0.48,0.059 -0.619,0.176 -0.137,0.114 -0.227,0.317 -0.271,0.602 h -1.651 c 0.036,-1.223 0.837,-1.836 2.4,-1.836 0.854,0 1.485,0.115 1.896,0.351 0.468,0.269 0.702,0.716 0.702,1.337"
   id="path25" />
	<rect
   width="1.706"
   height="7.8099999"
   x="35.345001"
   y="39.039001"
   id="rect27" />
	<path
   d="m 39.764,43.233 h 2.331 c -0.023,-0.385 -0.161,-0.677 -0.418,-0.871 -0.206,-0.163 -0.454,-0.243 -0.747,-0.243 -0.278,0 -0.524,0.089 -0.737,0.272 -0.249,0.204 -0.39,0.486 -0.429,0.842 m 4.04,1.062 h -4.017 c 0.009,0.505 0.152,0.886 0.438,1.137 0.227,0.213 0.505,0.318 0.834,0.318 0.297,0 0.555,-0.084 0.768,-0.251 0.167,-0.128 0.387,-0.385 0.659,-0.77 l 1.284,0.67 c -0.579,1.07 -1.524,1.604 -2.835,1.604 -0.884,0 -1.587,-0.279 -2.107,-0.834 -0.505,-0.525 -0.759,-1.212 -0.759,-2.062 0,-1.022 0.256,-1.819 0.764,-2.392 0.509,-0.568 1.21,-0.854 2.102,-0.854 0.998,0 1.74,0.345 2.23,1.036 0.419,0.593 0.63,1.392 0.639,2.398"
   id="path29" />
	<path
   d="m 46.571,43.933 c 0,0.604 0.098,1.06 0.299,1.359 0.2,0.305 0.5,0.458 0.895,0.458 0.812,0 1.208,-0.607 1.189,-1.817 C 48.946,43.337 48.862,42.897 48.702,42.612 48.51,42.284 48.2,42.12 47.767,42.12 c -0.396,0 -0.694,0.15 -0.897,0.457 -0.201,0.3 -0.299,0.75 -0.299,1.356 m -1.696,2.916 v -7.81 h 1.707 v 2.52 c 0.214,-0.236 0.452,-0.41 0.722,-0.524 0.268,-0.114 0.562,-0.172 0.882,-0.172 0.672,0 1.24,0.219 1.689,0.658 0.537,0.52 0.797,1.265 0.79,2.236 -0.008,1.104 -0.265,1.935 -0.769,2.489 -0.455,0.508 -1.074,0.758 -1.856,0.758 -0.308,0 -0.588,-0.059 -0.844,-0.182 -0.257,-0.121 -0.485,-0.303 -0.683,-0.546 v 0.572 h -1.638 z"
   id="path31" />
	<path
   d="m 51.677,41.018 h 1.707 v 5.831 h -1.707 v -5.831 z m 1.707,-0.664 h -1.707 v -1.315 h 1.707 v 1.315 z"
   id="path33" />
	<rect
   width="1.71"
   height="7.8099999"
   x="54.813"
   y="39.039001"
   id="rect35" />
	<path
   d="m 61.621,43.813 c 0,-0.568 -0.1,-0.992 -0.299,-1.273 -0.194,-0.279 -0.496,-0.421 -0.897,-0.421 -0.39,0 -0.682,0.15 -0.881,0.457 -0.196,0.301 -0.295,0.751 -0.295,1.356 0,0.604 0.1,1.06 0.295,1.359 0.199,0.305 0.491,0.458 0.881,0.458 0.401,0 0.703,-0.162 0.897,-0.487 0.199,-0.325 0.299,-0.807 0.299,-1.449 m 1.709,-4.774 v 7.81 h -1.639 l -0.03,-0.572 c -0.189,0.243 -0.411,0.425 -0.673,0.546 -0.259,0.123 -0.557,0.182 -0.894,0.182 -0.745,0 -1.34,-0.239 -1.788,-0.724 -0.496,-0.525 -0.754,-1.294 -0.766,-2.304 -0.02,-1.066 0.241,-1.875 0.783,-2.425 0.447,-0.458 1.009,-0.689 1.693,-0.689 0.335,0 0.636,0.053 0.906,0.152 0.268,0.106 0.5,0.26 0.698,0.466 V 39.04 h 1.71 z"
   id="path37" />
	<polygon
   points="63.961,41.018 65.739,41.018 66.54,45.14 67.395,41.018 69.246,41.018 70.036,45.14 70.948,41.018 72.742,41.018 70.797,46.849 69.115,46.849 68.259,43.046 67.395,46.849 65.706,46.849 "
   id="polygon39" />
	<path
   d="m 74.657,43.233 h 2.329 c -0.022,-0.385 -0.161,-0.677 -0.417,-0.871 -0.206,-0.163 -0.456,-0.243 -0.746,-0.243 -0.281,0 -0.525,0.089 -0.739,0.272 -0.247,0.204 -0.391,0.486 -0.427,0.842 m 4.037,1.062 h -4.015 c 0.007,0.505 0.154,0.886 0.439,1.137 0.226,0.213 0.504,0.318 0.833,0.318 0.299,0 0.556,-0.084 0.768,-0.251 0.17,-0.128 0.387,-0.385 0.657,-0.77 l 1.285,0.67 c -0.58,1.07 -1.523,1.604 -2.835,1.604 -0.884,0 -1.587,-0.279 -2.106,-0.834 -0.506,-0.525 -0.758,-1.212 -0.758,-2.062 0,-1.022 0.255,-1.819 0.762,-2.392 0.509,-0.568 1.211,-0.854 2.103,-0.854 0.996,0 1.743,0.345 2.233,1.036 0.414,0.593 0.627,1.392 0.634,2.398"
   id="path41" />
	<rect
   width="1.71"
   height="7.8099999"
   x="79.764999"
   y="39.039001"
   id="rect43" />
	<path
   d="m 85.798,41.117 v 1.061 h -1.032 v 2.861 c 0,0.19 0.049,0.334 0.141,0.435 0.09,0.098 0.227,0.147 0.4,0.147 0.17,0 0.344,-0.016 0.521,-0.043 v 1.357 c -0.442,0.047 -0.806,0.068 -1.101,0.068 -0.658,0 -1.119,-0.184 -1.383,-0.557 -0.19,-0.273 -0.286,-0.672 -0.286,-1.2 v -3.069 h -0.835 v -1.061 h 0.835 v -1.684 h 1.707 v 1.684 h 1.033 z"
   id="path45" />
	<path
   d="m 87.94,43.233 h 2.327 c -0.02,-0.385 -0.162,-0.677 -0.415,-0.871 -0.207,-0.163 -0.455,-0.243 -0.748,-0.243 -0.28,0 -0.523,0.089 -0.736,0.272 -0.247,0.204 -0.391,0.486 -0.428,0.842 m 4.039,1.062 h -4.016 c 0.005,0.505 0.152,0.886 0.438,1.137 0.229,0.213 0.505,0.318 0.836,0.318 0.298,0 0.558,-0.084 0.766,-0.251 0.169,-0.128 0.389,-0.385 0.661,-0.77 l 1.282,0.67 c -0.58,1.07 -1.522,1.604 -2.833,1.604 -0.886,0 -1.588,-0.279 -2.107,-0.834 -0.506,-0.525 -0.761,-1.212 -0.761,-2.062 0,-1.022 0.255,-1.819 0.763,-2.392 0.51,-0.568 1.211,-0.854 2.105,-0.854 0.993,0 1.74,0.345 2.231,1.036 0.415,0.593 0.627,1.392 0.635,2.398"
   id="path47" />
	<path
   d="m 93.049,46.849 v -5.831 h 1.708 v 0.513 c 0.189,-0.223 0.429,-0.393 0.708,-0.502 0.284,-0.111 0.61,-0.166 0.983,-0.166 0.595,0 1.037,0.139 1.329,0.418 0.294,0.278 0.441,0.696 0.441,1.26 v 4.309 h -1.712 v -3.646 c 0,-0.325 -0.066,-0.563 -0.208,-0.722 -0.137,-0.158 -0.35,-0.234 -0.628,-0.234 -0.301,0 -0.53,0.079 -0.682,0.239 -0.154,0.162 -0.232,0.408 -0.232,0.736 v 3.627 h -1.707 z"
   id="path49" />
	<path
   d="m 85.979,16.23 c 0.066,2.119 -2.717,1.859 -2.717,1.859 l -9.866,-0.024 c -2.393,0 -6.571,0.101 -6.571,5.02 l 0.002,1.641 4.097,-0.002 0.004,-0.033 c 0,-2.048 2.763,-1.842 2.763,-1.842 0,0 9.471,-0.014 10.913,-0.023 2.188,-0.049 5.346,-0.797 5.446,-4.684 V 16.233 C 89.616,16.232 85.979,16.23 85.979,16.23"
   id="path51"
   style="fill:#d80b8c" />
</g>
</svg>