<?xml version="1.0" encoding="utf-8"?>
<!-- Generator: Adobe Illustrator 14.0.0, SVG Export Plug-In  -->
<!DOCTYPE svg PUBLIC "-//W3C//DTD SVG 1.1//EN" "http://www.w3.org/Graphics/SVG/1.1/DTD/svg11.dtd" [
	<!ENTITY ns_flows "http://ns.adobe.com/Flows/1.0/">
]>
<svg version="1.1"
	 xmlns="http://www.w3.org/2000/svg" xmlns:xlink="http://www.w3.org/1999/xlink" xmlns:a="http://ns.adobe.com/AdobeSVGViewerExtensions/3.0/"
	 x="0px" y="0px" width="100px" height="50px" viewBox="-7.693 -16.015 100 50" enable-background="new -7.693 -16.015 100 50"
	 xml:space="preserve">
<defs>
</defs>
<path d="M0,8.906C0,3.2,3.912,0,9.682,0c5.771,0,9.683,3.227,9.683,8.906c0,5.704-3.912,9.064-9.683,9.064
	C3.912,17.97,0,14.61,0,8.906z M13.722,8.906c0-3.147-1.54-4.96-4.04-4.96c-2.501,0-4.04,1.813-4.04,4.96
	c0,3.145,1.538,5.119,4.04,5.119C12.183,14.025,13.722,12.051,13.722,8.906z"/>
<path d="M32.894,17.651l-3.59-5.813h-2.117v5.813h-5.515V0.319h7.887c4.488,0,8.336,1.28,8.336,5.599
	c0,2.481-1.348,4.107-3.367,5.014l4.521,6.719H32.894z M27.188,8.211h1.987c2.182,0,3.335-0.799,3.335-2.293
	c0-1.493-1.154-1.973-3.335-1.973h-1.987V8.211z"/>
<path d="M40.461,0.319h5.513v17.332h-5.513V0.319z"/>
<path d="M58.801,0c2.95,0,5.193,1.067,6.666,2.293l-3.012,2.826c-1.026-0.747-1.924-1.173-3.59-1.173
	c-2.822,0-4.938,1.867-4.938,5.013c0,3.253,1.731,5.066,5.45,5.066c0.577,0,1.219-0.107,1.603-0.319v-2.4h-3.077V7.573h7.952v8.265
	c-1.54,1.066-4.233,2.133-7.184,2.133c-5.705,0-10.387-2.933-10.387-8.851C48.284,3.306,53.094,0,58.801,0z"/>
<path d="M67.585,8.906C67.585,3.2,71.496,0,77.267,0c5.771,0,9.683,3.227,9.683,8.906c0,5.704-3.911,9.064-9.683,9.064
	C71.496,17.97,67.585,14.61,67.585,8.906z M81.307,8.906c0-3.147-1.539-4.96-4.04-4.96s-4.039,1.813-4.039,4.96
	c0,3.145,1.538,5.119,4.039,5.119S81.307,12.051,81.307,8.906z"/>
</svg>
