<?xml version="1.0" encoding="utf-8"?>
<!-- Generator: Adobe Illustrator 14.0.0, SVG Export Plug-In  -->
<!DOCTYPE svg PUBLIC "-//W3C//DTD SVG 1.1//EN" "http://www.w3.org/Graphics/SVG/1.1/DTD/svg11.dtd" [
	<!ENTITY ns_flows "http://ns.adobe.com/Flows/1.0/">
]>
<svg version="1.1"
	 xmlns="http://www.w3.org/2000/svg" xmlns:xlink="http://www.w3.org/1999/xlink" xmlns:a="http://ns.adobe.com/AdobeSVGViewerExtensions/3.0/"
	 x="0px" y="0px" width="100px" height="50px" viewBox="-3.422 -6.903 100 50" enable-background="new -3.422 -6.903 100 50"
	 xml:space="preserve">
<defs>
</defs>
<path fill-rule="evenodd" clip-rule="evenodd" fill="#272425" d="M5.244,11.217l6.192-6.189c0.857-0.865,2.267-0.865,3.128,0
	l5.233,5.229c0.18-0.518,0.264-1.024,0.264-1.524c-0.002-0.655-0.157-1.287-0.443-1.898c-0.301-0.622-0.726-1.206-1.266-1.719
	c-1.364-1.301-3.385-2.148-5.606-2.139c0,0,0,0-0.027,0c-0.728,0.013-1.447,0.12-2.135,0.306c-0.69,0.184-1.355,0.452-1.987,0.797
	C5.308,5.84,3.019,9.381,2.983,12.606c0,0.037,0,0.06,0,0.067C2.974,15.286,4.11,17.813,5.919,19.7
	c1.805,1.871,4.269,3.104,6.94,3.127c0.026,0,0.052,0,0.068,0c0.021,0,0.047,0,0.063,0c0.538,0,1.052-0.045,1.534-0.134
	c0.485-0.089,0.983-0.226,1.47-0.403c1.309-0.465,2.506-1.197,3.604-2.079c0.494,0.899,1.295,1.614,2.255,1.995
	c-1.434,1.231-3.067,2.254-4.846,2.886c-0.614,0.226-1.261,0.409-1.945,0.522c-0.689,0.132-1.38,0.196-2.057,0.204
	c-0.026,0-0.053,0-0.078,0c-0.042,0-0.067,0-0.093,0c-3.513-0.037-6.732-1.632-9.063-4.065c-2.327-2.424-3.78-5.678-3.772-9.08
	c0-0.03,0-0.075,0-0.087C0.041,8.335,2.971,3.709,7.183,1.45c0.836-0.448,1.714-0.802,2.633-1.059
	C10.744,0.145,11.711,0.005,12.691,0c0.005,0,0.019,0,0.037,0c3.025-0.018,5.787,1.146,7.68,2.957c0.798,0.76,1.453,1.654,1.9,2.614
	c0.474,0.985,0.731,2.055,0.738,3.157c0.017,1.695-0.563,3.44-1.899,5.1c-0.104,0.185-0.234,0.356-0.395,0.519l-6.188,6.197
	c-0.861,0.861-2.271,0.861-3.128,0l-6.192-6.197C4.383,13.498,4.383,12.08,5.244,11.217L5.244,11.217z"/>
<path fill-rule="evenodd" clip-rule="evenodd" fill="#A4CD39" d="M8.262,12.255l4.21-4.218c0.296-0.284,0.764-0.284,1.055,0
	l4.211,4.218c0.288,0.299,0.288,0.766,0,1.051l-4.211,4.218c-0.292,0.289-0.759,0.289-1.055,0l-4.21-4.218
	C7.972,13.021,7.972,12.554,8.262,12.255L8.262,12.255z"/>
<path fill-rule="evenodd" clip-rule="evenodd" fill="#272425" d="M23.498,15.48c1.416,0,2.577,1.163,2.577,2.573
	c0,1.434-1.162,2.598-2.577,2.598c-1.426,0-2.578-1.164-2.578-2.598C20.92,16.643,22.072,15.48,23.498,15.48L23.498,15.48z"/>
<path fill-rule="evenodd" clip-rule="evenodd" fill="#272425" d="M31.165,17.946c0,1.583-0.555,2.362-1.661,2.362
	c-1.11,0-1.664-0.778-1.664-2.362V7.709c0-1.583,0.553-2.362,1.664-2.362c1.106,0,1.661,0.779,1.661,2.362V17.946L31.165,17.946z"/>
<path fill-rule="evenodd" clip-rule="evenodd" fill="#272425" d="M42.831,15.61c0,1.543-0.574,2.775-1.709,3.676
	c-1.055,0.814-2.373,1.236-3.965,1.236c-0.981,0-1.934-0.175-2.849-0.502c-1.248-0.441-1.864-1.047-1.864-1.841
	c0-0.48,0.144-0.852,0.448-1.112c0.301-0.267,0.694-0.389,1.19-0.389c0.383,0,0.969,0.122,1.746,0.366
	c0.779,0.249,1.383,0.369,1.808,0.369c0.438,0,0.819-0.141,1.15-0.415c0.32-0.279,0.491-0.646,0.491-1.082
	c0-0.739-0.58-1.315-1.725-1.746c-1.975-0.724-3.046-1.141-3.225-1.237c-1.148-0.686-1.724-1.749-1.724-3.17
	c0-1.46,0.535-2.602,1.599-3.453c0.985-0.785,2.22-1.17,3.697-1.17c0.891,0,1.712,0.143,2.463,0.435
	c1.012,0.396,1.521,0.966,1.521,1.724c0,0.433-0.144,0.777-0.411,1.036c-0.272,0.25-0.637,0.377-1.088,0.377
	c-0.3,0-0.736-0.085-1.301-0.256c-0.573-0.178-1.005-0.259-1.307-0.259c-0.424,0-0.786,0.094-1.089,0.291
	c-0.353,0.232-0.536,0.555-0.536,0.959c0,0.513,0.581,0.98,1.73,1.397c1.668,0.622,2.742,1.089,3.217,1.447
	C42.253,13.078,42.831,14.185,42.831,15.61L42.831,15.61z"/>
<path fill-rule="evenodd" clip-rule="evenodd" fill="#272425" d="M54.486,18.588c0,1.025-0.785,1.542-2.364,1.542h-6.669
	c-1.557,0-2.342-0.563-2.342-1.667c0-0.521,0.308-1.194,0.923-2.01l5.961-7.905h-4.296c-1.573,0-2.36-0.511-2.36-1.5
	c0-1.012,0.788-1.522,2.36-1.522h5.645c1.904,0,2.854,0.537,2.854,1.627c0,0.479-0.317,1.159-0.954,2.033l-5.823,7.857h4.702
	C53.701,17.044,54.486,17.556,54.486,18.588L54.486,18.588z"/>
<path fill-rule="evenodd" clip-rule="evenodd" fill="#272425" d="M58.573,8.627c-1.201,0-1.947-0.023-2.239-0.079
	c-0.902-0.198-1.358-0.676-1.358-1.458c0-1.038,0.789-1.564,2.36-1.564h5.791c1.572,0,2.366,0.526,2.366,1.564
	c0,0.781-0.451,1.26-1.363,1.458c-0.282,0.055-1.031,0.079-2.235,0.079v9.319c0,1.583-0.55,2.362-1.659,2.362
	c-1.11,0-1.662-0.778-1.662-2.362V8.627L58.573,8.627z"/>
<polygon fill-rule="evenodd" clip-rule="evenodd" fill="#808083" points="28.776,27.967 27.764,27.967 27.764,22.767 28.776,22.767 
	28.776,27.967 "/>
<path fill-rule="evenodd" clip-rule="evenodd" fill="#808083" d="M32.718,27.967h-0.944v-2.306c0-0.207-0.056-0.364-0.165-0.501
	c-0.107-0.115-0.263-0.185-0.465-0.185c-0.201,0-0.356,0.069-0.461,0.185c-0.118,0.137-0.172,0.294-0.172,0.501v2.306h-0.942v-3.799
	h0.923v0.35c0.248-0.265,0.563-0.393,0.948-0.393c0.414,0,0.732,0.136,0.962,0.397c0.216,0.252,0.317,0.588,0.317,1.013V27.967
	L32.718,27.967z"/>
<path fill-rule="evenodd" clip-rule="evenodd" fill="#808083" d="M35.203,27.967H34.68c-0.326,0-0.592-0.104-0.802-0.298
	c-0.198-0.202-0.3-0.467-0.3-0.792v-1.879h-0.399v-0.721h0.399v-1.125h0.957v1.125h0.668v0.721h-0.668v1.817
	c0,0.183,0.068,0.29,0.22,0.329c0.03,0.011,0.182,0.015,0.448,0.015V27.967L35.203,27.967z"/>
<path fill-rule="evenodd" clip-rule="evenodd" fill="#808083" d="M39.02,26.363h-2.379c0,0.25,0.073,0.452,0.229,0.608
	c0.145,0.16,0.355,0.23,0.603,0.23c0.339,0,0.624-0.118,0.861-0.354l0.575,0.561c-0.398,0.407-0.879,0.592-1.442,0.592
	c-1.17,0-1.757-0.643-1.757-1.937c0-0.555,0.131-1.02,0.399-1.368c0.29-0.378,0.707-0.571,1.254-0.571
	c0.518,0,0.928,0.167,1.233,0.523c0.279,0.327,0.422,0.756,0.422,1.28V26.363L39.02,26.363z M38.08,25.713
	c-0.02-0.542-0.26-0.813-0.716-0.813c-0.458,0-0.698,0.271-0.723,0.813H38.08L38.08,25.713z"/>
<path fill-rule="evenodd" clip-rule="evenodd" fill="#808083" d="M42.491,24.474l-0.719,0.728c-0.145-0.151-0.316-0.226-0.503-0.226
	c-0.185,0-0.335,0.069-0.44,0.203c-0.12,0.139-0.169,0.299-0.169,0.495v2.293h-0.947v-3.799h0.92v0.36
	c0.236-0.268,0.552-0.403,0.963-0.403C41.947,24.125,42.249,24.241,42.491,24.474L42.491,24.474z"/>
<path fill-rule="evenodd" clip-rule="evenodd" fill="#808083" d="M46.052,27.967h-0.947v-2.306c0-0.207-0.058-0.364-0.164-0.501
	c-0.112-0.115-0.261-0.185-0.459-0.185c-0.197,0-0.355,0.069-0.469,0.185c-0.115,0.137-0.167,0.294-0.167,0.501v2.306h-0.949v-3.799
	h0.925v0.35c0.248-0.265,0.563-0.393,0.946-0.393c0.416,0,0.735,0.136,0.962,0.397c0.215,0.252,0.322,0.588,0.322,1.013V27.967
	L46.052,27.967z"/>
<path fill-rule="evenodd" clip-rule="evenodd" fill="#808083" d="M49.944,26.363h-2.373c0,0.25,0.072,0.452,0.223,0.608
	c0.152,0.16,0.354,0.23,0.604,0.23c0.345,0,0.63-0.118,0.86-0.354l0.573,0.561c-0.397,0.407-0.876,0.592-1.438,0.592
	c-1.174,0-1.758-0.643-1.758-1.937c0-0.555,0.135-1.02,0.399-1.368c0.291-0.378,0.711-0.571,1.258-0.571
	c0.518,0,0.929,0.167,1.225,0.523c0.281,0.327,0.426,0.756,0.426,1.28V26.363L49.944,26.363z M49.011,25.713
	c-0.021-0.542-0.266-0.813-0.717-0.813c-0.459,0-0.703,0.271-0.722,0.813H49.011L49.011,25.713z"/>
<path fill-rule="evenodd" clip-rule="evenodd" fill="#808083" d="M52.344,27.967h-0.515c-0.332,0-0.601-0.104-0.8-0.298
	c-0.2-0.202-0.306-0.467-0.306-0.792v-1.879h-0.398v-0.721h0.398v-1.125h0.95v1.125h0.67v0.721h-0.67v1.817
	c0,0.183,0.071,0.29,0.225,0.329c0.038,0.011,0.184,0.015,0.445,0.015V27.967L52.344,27.967z"/>
<path fill-rule="evenodd" clip-rule="evenodd" fill="#808083" d="M58.438,26.432c0,0.509-0.198,0.912-0.595,1.195
	c-0.358,0.254-0.798,0.374-1.329,0.374c-0.814,0-1.446-0.218-1.896-0.684l0.658-0.649c0.291,0.286,0.709,0.438,1.253,0.438
	c0.614,0,0.915-0.22,0.915-0.65c0-0.33-0.223-0.534-0.676-0.625c-0.783-0.169-1.213-0.253-1.268-0.282
	c-0.45-0.212-0.673-0.631-0.673-1.249c0-0.503,0.173-0.89,0.534-1.181c0.329-0.258,0.754-0.392,1.269-0.392
	c0.697,0,1.26,0.207,1.678,0.606l-0.642,0.643c-0.251-0.241-0.605-0.364-1.067-0.364c-0.223,0-0.407,0.048-0.555,0.149
	c-0.161,0.12-0.246,0.288-0.246,0.509c0,0.301,0.227,0.489,0.686,0.579c0.731,0.139,1.156,0.232,1.271,0.283
	C58.208,25.355,58.438,25.798,58.438,26.432L58.438,26.432z"/>
<polygon fill-rule="evenodd" clip-rule="evenodd" fill="#808083" points="61.664,27.967 58.775,27.967 58.775,27.241 60.463,25.014 
	58.868,25.014 58.868,24.168 61.664,24.168 61.664,24.893 59.964,27.105 61.664,27.105 61.664,27.967 "/>
<path fill-rule="evenodd" clip-rule="evenodd" fill="#808083" d="M65.424,26.064c0,1.294-0.537,1.937-1.612,1.937
	c-1.071,0-1.607-0.643-1.607-1.937c0-1.306,0.536-1.939,1.607-1.939C64.887,24.125,65.424,24.759,65.424,26.064L65.424,26.064z
	 M64.473,26.064c0-0.331-0.035-0.575-0.098-0.729c-0.093-0.244-0.279-0.36-0.563-0.36c-0.275,0-0.466,0.116-0.559,0.36
	c-0.062,0.165-0.097,0.406-0.097,0.729c0,0.336,0.035,0.566,0.097,0.719c0.093,0.247,0.283,0.365,0.559,0.365
	c0.284,0,0.471-0.118,0.563-0.355C64.438,26.634,64.473,26.4,64.473,26.064L64.473,26.064z"/>
<path fill-rule="evenodd" clip-rule="evenodd" fill="#808083" d="M67.728,27.967h-0.54c-0.33,0-0.601-0.104-0.808-0.298
	c-0.197-0.202-0.299-0.467-0.299-0.792v-4.11h0.948v4.049c0,0.229,0.135,0.344,0.411,0.344c0.038,0,0.08,0,0.152,0
	c0.055,0,0.106,0,0.135,0V27.967L67.728,27.967z"/>
<path fill-rule="evenodd" clip-rule="evenodd" fill="#808083" d="M71.333,27.821c0,0.48-0.153,0.873-0.471,1.15
	c-0.312,0.283-0.706,0.428-1.198,0.428c-0.572,0-1.031-0.164-1.378-0.492l0.59-0.605c0.2,0.192,0.45,0.298,0.74,0.298
	c0.346,0,0.565-0.125,0.682-0.376c0.059-0.142,0.085-0.407,0.085-0.795c-0.216,0.24-0.524,0.388-0.901,0.388
	c-0.528,0-0.885-0.21-1.076-0.59c-0.141-0.272-0.217-0.695-0.217-1.272c0-0.567,0.076-0.985,0.217-1.258
	c0.199-0.378,0.555-0.571,1.085-0.571c0.376,0,0.687,0.136,0.924,0.397v-0.354h0.919V27.821L71.333,27.821z M70.383,25.954
	c0-0.293-0.026-0.521-0.085-0.657c-0.104-0.216-0.277-0.321-0.541-0.321c-0.256,0-0.431,0.105-0.523,0.321
	c-0.063,0.136-0.093,0.354-0.093,0.657c0,0.305,0.03,0.524,0.093,0.659c0.093,0.226,0.268,0.334,0.523,0.334
	c0.264,0,0.438-0.108,0.541-0.334C70.356,26.475,70.383,26.256,70.383,25.954L70.383,25.954z"/>
<path fill-rule="evenodd" clip-rule="evenodd" fill="#808083" d="M74.988,27.967h-0.924v-0.331
	c-0.246,0.245-0.561,0.363-0.937,0.363c-0.394,0-0.707-0.104-0.925-0.288c-0.24-0.209-0.361-0.513-0.361-0.896
	c0-0.384,0.126-0.662,0.378-0.84c0.201-0.139,0.487-0.229,0.874-0.263c0.068,0,0.385,0,0.943,0v-0.19
	c0-0.398-0.232-0.605-0.709-0.605c-0.304,0-0.549,0.106-0.725,0.316l-0.604-0.585c0.185-0.209,0.387-0.35,0.62-0.425
	c0.186-0.066,0.435-0.099,0.748-0.099c1.08,0,1.621,0.445,1.621,1.329V27.967L74.988,27.967z M74.037,26.565v-0.202h-0.754
	c-0.348,0-0.528,0.142-0.528,0.43c0,0.286,0.181,0.434,0.546,0.434c0.26,0,0.447-0.045,0.563-0.143
	C73.979,26.984,74.037,26.815,74.037,26.565L74.037,26.565z M74.549,22.316l-0.83,1.239h-0.64l0.472-1.239H74.549L74.549,22.316z"/>
<path fill-rule="evenodd" clip-rule="evenodd" fill="#808083" d="M77.288,27.967h-0.536c-0.334,0-0.602-0.104-0.804-0.298
	c-0.206-0.202-0.303-0.467-0.303-0.792v-4.11h0.939v4.049c0,0.229,0.141,0.344,0.417,0.344c0.037,0,0.084,0,0.146,0
	c0.065,0,0.112,0,0.141,0V27.967L77.288,27.967z"/>
<path fill-rule="evenodd" clip-rule="evenodd" fill="#808083" d="M79.622,27.967h-0.516c-0.335,0-0.597-0.104-0.803-0.298
	c-0.198-0.202-0.302-0.467-0.302-0.792v-1.879h-0.399v-0.721h0.399v-1.125h0.949v1.125h0.671v0.721h-0.671v1.817
	c0,0.183,0.077,0.29,0.225,0.329c0.04,0.011,0.183,0.015,0.446,0.015V27.967L79.622,27.967z"/>
<path fill-rule="evenodd" clip-rule="evenodd" fill="#808083" d="M83.193,27.967h-0.925v-0.331
	c-0.244,0.245-0.558,0.363-0.938,0.363c-0.387,0-0.696-0.104-0.921-0.288c-0.24-0.209-0.361-0.513-0.361-0.896
	c0-0.384,0.132-0.662,0.384-0.84c0.201-0.139,0.488-0.229,0.869-0.263c0.069,0,0.39,0,0.947,0v-0.19
	c0-0.398-0.238-0.605-0.708-0.605c-0.308,0-0.548,0.106-0.73,0.316l-0.604-0.585c0.189-0.209,0.39-0.35,0.617-0.425
	c0.189-0.066,0.443-0.099,0.753-0.099c1.08,0,1.618,0.445,1.618,1.329V27.967L83.193,27.967z M82.248,26.565v-0.202h-0.753
	c-0.354,0-0.535,0.142-0.535,0.43c0,0.286,0.187,0.434,0.547,0.434c0.262,0,0.447-0.045,0.565-0.143
	C82.191,26.984,82.248,26.815,82.248,26.565L82.248,26.565z"/>
<path fill-rule="evenodd" clip-rule="evenodd" fill="#808083" d="M85.677,27.967H85.15c-0.325,0-0.588-0.104-0.79-0.298
	c-0.206-0.202-0.307-0.467-0.307-0.792v-1.879h-0.404v-0.721h0.404v-1.125h0.949v1.125h0.674v0.721h-0.674v1.817
	c0,0.183,0.074,0.29,0.227,0.329c0.032,0.011,0.178,0.015,0.447,0.015V27.967L85.677,27.967z"/>
<path fill-rule="evenodd" clip-rule="evenodd" fill="#808083" d="M89.428,26.064c0,1.294-0.539,1.937-1.612,1.937
	c-1.068,0-1.606-0.643-1.606-1.937c0-1.306,0.538-1.939,1.606-1.939C88.889,24.125,89.428,24.759,89.428,26.064L89.428,26.064z
	 M88.475,26.064c0-0.331-0.028-0.575-0.092-0.729c-0.097-0.244-0.29-0.36-0.567-0.36c-0.276,0-0.46,0.116-0.561,0.36
	c-0.064,0.165-0.095,0.406-0.095,0.729c0,0.336,0.03,0.566,0.095,0.719c0.101,0.247,0.284,0.365,0.561,0.365
	c0.277,0,0.471-0.118,0.567-0.355C88.446,26.634,88.475,26.4,88.475,26.064L88.475,26.064z M88.889,22.316l-0.828,1.239H87.42
	l0.473-1.239H88.889L88.889,22.316z"/>
<polygon fill-rule="evenodd" clip-rule="evenodd" fill="#808083" points="93.531,27.967 92.358,27.967 91.427,26.382 91.022,26.83 
	91.022,27.967 90.076,27.967 90.076,22.767 91.022,22.767 91.022,25.713 92.279,24.168 93.428,24.168 92.071,25.701 93.531,27.967 
	"/>
<polygon fill-rule="evenodd" clip-rule="evenodd" fill="#808083" points="31.102,31.255 29.746,31.255 29.746,35.538 28.733,35.538 
	28.733,31.255 27.374,31.255 27.374,30.361 31.102,30.361 31.102,31.255 "/>
<path fill-rule="evenodd" clip-rule="evenodd" fill="#808083" d="M33.521,35.538h-0.92v-0.321c-0.245,0.248-0.559,0.365-0.937,0.365
	c-0.394,0-0.702-0.097-0.926-0.292c-0.239-0.216-0.358-0.5-0.358-0.891c0-0.387,0.127-0.665,0.377-0.838
	c0.205-0.154,0.488-0.234,0.871-0.265c0.07,0,0.388-0.006,0.945-0.006v-0.192c0-0.399-0.233-0.594-0.705-0.594
	c-0.308,0-0.549,0.1-0.727,0.308l-0.61-0.587c0.188-0.194,0.392-0.344,0.62-0.427c0.194-0.062,0.44-0.099,0.754-0.099
	c1.077,0,1.615,0.448,1.615,1.345V35.538L33.521,35.538z M32.573,34.141v-0.207h-0.756c-0.347,0-0.524,0.149-0.524,0.443
	c0,0.28,0.182,0.426,0.548,0.426c0.25,0,0.441-0.038,0.56-0.138C32.515,34.574,32.573,34.399,32.573,34.141L32.573,34.141z"/>
<path fill-rule="evenodd" clip-rule="evenodd" fill="#808083" d="M37.452,35.538h-0.948v-2.285c0-0.208-0.051-0.381-0.164-0.504
	c-0.11-0.126-0.268-0.186-0.46-0.186c-0.201,0-0.362,0.06-0.473,0.186c-0.109,0.123-0.163,0.296-0.163,0.504v2.285h-0.956v-3.794
	h0.931v0.35c0.248-0.262,0.565-0.394,0.95-0.394c0.413,0,0.734,0.132,0.958,0.398c0.214,0.252,0.324,0.601,0.324,1.015V35.538
	L37.452,35.538z"/>
<path fill-rule="evenodd" clip-rule="evenodd" fill="#808083" d="M41.099,35.538h-0.928v-0.321
	c-0.243,0.248-0.554,0.365-0.936,0.365c-0.392,0-0.7-0.097-0.923-0.292c-0.24-0.216-0.352-0.5-0.352-0.891
	c0-0.387,0.118-0.665,0.374-0.838c0.198-0.154,0.492-0.234,0.869-0.265c0.073,0,0.386-0.006,0.946-0.006v-0.192
	c0-0.399-0.238-0.594-0.712-0.594c-0.306,0-0.545,0.1-0.722,0.308l-0.605-0.587c0.182-0.194,0.392-0.344,0.616-0.427
	c0.189-0.062,0.443-0.099,0.751-0.099c1.083,0,1.623,0.448,1.623,1.345V35.538L41.099,35.538z M40.149,34.141v-0.207h-0.753
	c-0.356,0-0.529,0.149-0.529,0.443c0,0.28,0.185,0.426,0.547,0.426c0.257,0,0.445-0.038,0.56-0.138
	C40.09,34.574,40.149,34.399,40.149,34.141L40.149,34.141z M40.659,29.905l-0.832,1.234h-0.63l0.468-1.234H40.659L40.659,29.905z"/>
<path fill-rule="evenodd" clip-rule="evenodd" fill="#808083" d="M44.549,35.066c-0.328,0.352-0.749,0.52-1.252,0.52
	c-0.552,0-0.987-0.185-1.293-0.565c-0.268-0.334-0.405-0.801-0.405-1.38c0-0.587,0.137-1.038,0.405-1.382
	c0.299-0.369,0.725-0.559,1.293-0.559c0.51,0,0.932,0.179,1.252,0.516l-0.644,0.633c-0.178-0.188-0.382-0.285-0.608-0.285
	c-0.5,0-0.75,0.356-0.75,1.077c0,0.736,0.249,1.086,0.75,1.086c0.227,0,0.43-0.096,0.608-0.287L44.549,35.066L44.549,35.066z"/>
<path fill-rule="evenodd" clip-rule="evenodd" fill="#808083" d="M47.919,34.349c0,0.424-0.171,0.744-0.511,0.967
	c-0.288,0.183-0.657,0.271-1.101,0.271c-0.714,0-1.253-0.185-1.613-0.551l0.616-0.613c0.242,0.235,0.579,0.356,1.014,0.356
	c0.448,0,0.67-0.132,0.67-0.4c0-0.199-0.178-0.32-0.542-0.365c-0.57-0.063-0.9-0.124-1.018-0.173
	c-0.364-0.149-0.549-0.467-0.549-0.92c0-0.396,0.151-0.694,0.463-0.924c0.271-0.197,0.609-0.296,1.004-0.296
	c0.651,0,1.132,0.152,1.449,0.448l-0.58,0.588c-0.191-0.171-0.487-0.257-0.881-0.257c-0.361,0-0.537,0.123-0.537,0.369
	c0,0.184,0.176,0.305,0.542,0.344c0.545,0.063,0.886,0.132,1.03,0.191C47.74,33.562,47.919,33.872,47.919,34.349L47.919,34.349z"/>
<path fill-rule="evenodd" clip-rule="evenodd" fill="#808083" d="M51.497,35.538h-0.923v-0.321
	c-0.245,0.248-0.555,0.365-0.931,0.365c-0.396,0-0.712-0.097-0.923-0.292c-0.249-0.216-0.362-0.5-0.362-0.891
	c0-0.387,0.127-0.665,0.379-0.838c0.194-0.154,0.485-0.234,0.864-0.265c0.069,0,0.394-0.006,0.95-0.006v-0.192
	c0-0.399-0.238-0.594-0.707-0.594c-0.306,0-0.552,0.1-0.73,0.308l-0.602-0.587c0.181-0.194,0.39-0.344,0.62-0.427
	c0.188-0.062,0.437-0.099,0.745-0.099c1.082,0,1.619,0.448,1.619,1.345V35.538L51.497,35.538z M50.552,34.141v-0.207H49.8
	c-0.355,0-0.535,0.149-0.535,0.443c0,0.28,0.18,0.426,0.558,0.426c0.249,0,0.435-0.038,0.556-0.138
	C50.492,34.574,50.552,34.399,50.552,34.141L50.552,34.141z"/>
</svg>
