<?xml version="1.0" encoding="utf-8"?>
<!-- Generator: Adobe Illustrator 14.0.0, SVG Export Plug-In  -->
<!DOCTYPE svg PUBLIC "-//W3C//DTD SVG 1.1//EN" "http://www.w3.org/Graphics/SVG/1.1/DTD/svg11.dtd" [
	<!ENTITY ns_flows "http://ns.adobe.com/Flows/1.0/">
]>
<svg version="1.1"
	 xmlns="http://www.w3.org/2000/svg" xmlns:xlink="http://www.w3.org/1999/xlink" xmlns:a="http://ns.adobe.com/AdobeSVGViewerExtensions/3.0/"
	 x="0px" y="0px" width="100px" height="50px" viewBox="-6.379 -4.054 100 50" enable-background="new -6.379 -4.054 100 50"
	 xml:space="preserve">
<defs>
</defs>
<path fill="#98C93C" d="M33.842,15.093c4.164,0,7.544-3.378,7.544-7.548c0-4.167-3.38-7.545-7.544-7.545
	c-4.171,0-7.549,3.378-7.549,7.545C26.292,11.715,29.671,15.093,33.842,15.093z M33.842,1.68c3.237,0,5.863,2.627,5.863,5.865
	c0,3.24-2.626,5.867-5.863,5.867c-3.242,0-5.867-2.627-5.867-5.867C27.975,4.307,30.6,1.68,33.842,1.68z"/>
<path fill="#98C93C" d="M14.917,20.693c0-3.19,2.584-5.774,5.774-5.774l0.002-1.648c-4.104,0-7.433,3.319-7.433,7.423
	c0,4.104,3.329,7.43,7.433,7.43c4.104,0,7.421-3.323,7.421-7.43h-1.639c0,3.189-2.596,5.776-5.785,5.776
	C17.501,26.47,14.917,23.883,14.917,20.693z"/>
<path fill="#98C93C" d="M9.969,20.693c0,5.922,4.801,10.72,10.725,10.72c5.918,0,10.733-4.798,10.733-10.72h-1.645
	c0,5.014-4.078,9.074-9.088,9.074c-5.013,0-9.076-4.063-9.076-9.074c0-5.013,4.063-9.074,9.076-9.074V9.971
	C14.771,9.971,9.969,14.774,9.969,20.693z"/>
<path fill="#98C93C" d="M6.643,20.693c0,7.758,6.29,14.05,14.051,14.05c7.757,0,14.033-6.288,14.033-14.05H33.07
	c0,6.832-5.549,12.369-12.376,12.369c-6.833,0-12.37-5.537-12.37-12.369c0-6.832,5.536-12.368,12.37-12.368V6.661
	C12.933,6.661,6.643,12.933,6.643,20.693z"/>
<path fill="#98C93C" d="M20.694,3.311c-9.601,0-17.382,7.782-17.382,17.381c0,9.6,7.781,17.382,17.382,17.382
	c9.598,0,17.369-7.78,17.369-17.381h-1.654c0,8.673-7.042,15.707-15.715,15.707c-8.675,0-15.707-7.034-15.707-15.707
	c0-8.673,7.031-15.707,15.707-15.707V3.311z"/>
<path fill="#98C93C" d="M20.695,39.737c-10.521,0-19.047-8.525-19.047-19.045c0-10.518,8.526-19.044,19.047-19.044L20.694,0
	C9.264,0,0,9.264,0,20.692s9.264,20.696,20.695,20.696c11.427,0,20.69-9.264,20.69-20.694l-1.637-0.001
	C39.749,31.212,31.212,39.737,20.695,39.737z"/>
<path fill="#98C93C" d="M51.176,18.291c0.826,0,1.844-0.184,2.396-0.442v-4.486h-2.823v1.412h1.124v2.012
	c-0.198,0.034-0.493,0.049-0.741,0.049c-1.247,0-2.215-0.661-2.215-2.778c0-2.084,0.977-2.747,2.432-2.747
	c0.609,0,1.41,0.13,1.92,0.338l0.172-1.424c-0.563-0.229-1.482-0.369-2.188-0.369c-2.509,0-4.128,1.315-4.128,4.224
	C47.125,16.926,48.624,18.291,51.176,18.291z"/>
<polygon fill="#98C93C" points="79.614,18.128 81.359,18.128 81.359,9.986 79.614,9.986 79.614,13.203 76.995,13.203 76.995,9.986 
	75.248,9.986 75.248,18.128 76.995,18.128 76.995,14.654 79.614,14.654 "/>
<polygon fill="#98C93C" points="72.497,18.128 72.497,11.452 74.265,11.452 74.265,9.986 68.958,9.986 68.958,11.452 70.728,11.452 
	70.728,18.128 "/>
<polygon fill="#98C93C" points="64.844,14.663 67.718,14.663 67.718,13.225 64.844,13.225 64.844,11.44 68.227,11.44 68.227,9.986 
	63.095,9.986 63.095,18.128 68.344,18.128 68.344,16.677 64.844,16.677 "/>
<path fill="#98C93C" d="M58.302,18.368c2.313,0,3.431-1.24,3.431-4.314c0-3.01-1.118-4.305-3.431-4.305s-3.428,1.295-3.428,4.305
	C54.874,17.06,56.033,18.368,58.302,18.368z M58.302,11.197c1.108,0,1.642,0.693,1.642,2.856c0,2.148-0.533,2.876-1.629,2.876
	c-1.109,0-1.652-0.714-1.652-2.876C56.662,11.901,57.205,11.197,58.302,11.197z"/>
<polygon fill="#98C93C" points="88.339,16.677 84.839,16.677 84.839,14.663 87.712,14.663 87.712,13.225 84.839,13.225 
	84.839,11.44 88.226,11.44 88.226,9.986 83.09,9.986 83.09,18.128 88.339,18.128 "/>
<polygon fill="#98C93C" points="62.858,22.337 64.478,22.337 64.478,28.78 66.187,28.78 66.187,22.337 67.806,22.337 67.806,20.922 
	62.858,20.922 "/>
<rect x="47.711" y="20.922" fill="#98C93C" width="1.724" height="7.858"/>
<path fill="#98C93C" d="M81.079,26.047c0,0.91-0.311,1.415-1.161,1.415c-0.844,0-1.173-0.514-1.173-1.415v-5.125h-1.71v5.187
	c0,1.888,0.971,2.809,2.877,2.809c1.886,0,2.858-0.921,2.858-2.809v-5.187h-1.691V26.047z"/>
<path fill="#98C93C" d="M59.563,23.016c0-0.405,0.209-0.809,1.063-0.809c0.535,0,1.01,0.144,1.486,0.354l0.188-1.376
	c-0.544-0.251-1.107-0.386-1.822-0.386c-1.811,0-2.596,1.046-2.596,2.375c0,2.53,3.125,2.046,3.125,3.449
	c0,0.54-0.338,0.902-1.054,0.902c-0.702,0-1.299-0.236-1.883-0.565l-0.22,1.4c0.607,0.357,1.358,0.558,2.176,0.558
	c1.697,0,2.659-0.943,2.659-2.481C62.688,23.823,59.563,24.232,59.563,23.016z"/>
<polygon fill="#98C93C" points="55.127,25.512 52.711,20.922 51.15,20.922 51.15,28.78 52.711,28.78 52.711,24.193 55.127,28.78 
	56.686,28.78 56.686,20.922 55.127,20.922 "/>
<polygon fill="#98C93C" points="83.566,20.922 83.566,22.337 85.186,22.337 85.186,28.78 86.892,28.78 86.892,22.337 88.513,22.337 
	88.513,20.922 "/>
<rect x="68.676" y="20.922" fill="#98C93C" width="1.726" height="7.858"/>
<polygon fill="#98C93C" points="71.275,22.337 72.895,22.337 72.895,28.78 74.602,28.78 74.602,22.337 76.22,22.337 76.22,20.922 
	71.275,20.922 "/>
</svg>
