<?xml version="1.0" encoding="utf-8"?>
<!-- Generator: Adobe Illustrator 18.0.0, SVG Export Plug-In . SVG Version: 6.00 Build 0)  -->
<!DOCTYPE svg PUBLIC "-//W3C//DTD SVG 1.1//EN" "http://www.w3.org/Graphics/SVG/1.1/DTD/svg11.dtd">
<svg version="1.1" id="Layer_1" xmlns="http://www.w3.org/2000/svg" xmlns:xlink="http://www.w3.org/1999/xlink" x="0px" y="0px"
	 viewBox="0 0 222 137" enable-background="new 0 0 222 137" xml:space="preserve">
<g>
	<path d="M28.6,57l8.5-8.7h37l8.5,8.7v51.9H71.3v-50H39.9v50H28.6V57z"/>
</g>
<polygon fill="#F58025" points="131,53.3 131.1,53.3 178.4,15 161.5,14.9 120.8,47.9 120.8,47.9 91.8,72.2 91.8,82.1 123,108.9 
	140.7,108.9 102.2,77 "/>
<path d="M184,48.3h-29.8L141,59h40.1v13.9h-34.2l-8.5,8.5v12.7l17.9,14.9H184l8.5-8.7V57.1L184,48.3z M181.1,98.4h-31.4V83.5h31.4
	V98.4z"/>
</svg>
