<?xml version="1.0" encoding="utf-8"?>
<!-- Generator: Adobe Illustrator 18.0.0, SVG Export Plug-In . SVG Version: 6.00 Build 0)  -->
<!DOCTYPE svg PUBLIC "-//W3C//DTD SVG 1.1//EN" "http://www.w3.org/Graphics/SVG/1.1/DTD/svg11.dtd">
<svg version="1.1" id="Layer_1" xmlns="http://www.w3.org/2000/svg" xmlns:xlink="http://www.w3.org/1999/xlink" x="0px" y="0px"
	 viewBox="0 0 482.4 145.9" enable-background="new 0 0 482.4 145.9" xml:space="preserve">
<rect x="0.2" y="-1.5" fill="#155092" width="483" height="148"/>
<g>
	<path fill="#FFFFFF" d="M52.3,70.4c0-23.5,17.7-39.9,41.3-39.9c23.6,0,41.2,16.4,41.2,39.9c0,23.5-17.6,39.9-41.2,39.9
		C70,110.3,52.3,93.9,52.3,70.4 M114.6,70.4c0-12.6-8.2-22.3-21-22.3c-12.7,0-21.1,9.7-21.1,22.3c0,12.5,8.3,22.3,21.1,22.3
		C106.3,92.7,114.6,82.9,114.6,70.4z"/>
	<path fill="#FFFFFF" d="M190.8,108.9l-13-25.9h-10.2v25.9h-19.9V31.7h38.7c17.1,0,26.9,11.3,26.9,25.7c0,13.4-8.1,20.6-15.4,23.1
		l15.7,28.4H190.8 M193,57.3c0-5.3-4.3-8.2-9.6-8.2h-15.7v16.5h15.7C188.7,65.6,193,62.7,193,57.3z"/>
	<path fill="#FFFFFF" d="M259.9,70.4c0-24.5,18.8-39.9,41.8-39.9c17.2,0,27.7,9.1,33,18.7L318,57.9c-2.9-5.1-8.8-9.8-16.3-9.8
		c-12.6,0-21.5,9.6-21.5,22.3c0,12.6,8.9,22.3,21.5,22.3c5.7,0,11.5-2.3,14.2-4.6v-6h-13.9l-2.3-17.5h36.1v30.7
		c-8.2,9.1-19.6,15-34.2,15C278.7,110.3,259.9,94.9,259.9,70.4"/>
	<path fill="#FFFFFF" d="M346.5,70.4c0-23.5,17.7-39.9,41.3-39.9c23.6,0,41.2,16.4,41.2,39.9c0,23.5-17.6,39.9-41.2,39.9
		C364.2,110.3,346.5,93.9,346.5,70.4 M408.8,70.4c0-12.6-8.2-22.3-21-22.3c-12.7,0-21.1,9.7-21.1,22.3c0,12.5,8.3,22.3,21.1,22.3
		C400.6,92.7,408.8,82.9,408.8,70.4z"/>
	<rect x="226.2" y="32.2" fill="#FFFFFF" width="20.8" height="76.4"/>
</g>
</svg>
