<?xml version="1.0" encoding="utf-8"?>
<!-- Generator: Adobe Illustrator 15.0.0, SVG Export Plug-In . SVG Version: 6.00 Build 0)  -->
<!DOCTYPE svg PUBLIC "-//W3C//DTD SVG 1.1//EN" "http://www.w3.org/Graphics/SVG/1.1/DTD/svg11.dtd">
<svg version="1.1" id="Layer_1" xmlns="http://www.w3.org/2000/svg" xmlns:xlink="http://www.w3.org/1999/xlink" x="0px" y="0px"
	 width="245px" height="100px" viewBox="0 0 245 100" enable-background="new 0 0 245 100" xml:space="preserve">
<g>
	<g>
		<path fill="#3498DB" d="M67.891,27.974c-2.951,0-5.748,0.689-8.194,1.936c-3.492-9.364-12.731-16.053-23.587-16.053
			c-13.836,0-25.062,10.916-25.062,24.341c0,6.379,2.521,12.176,6.673,16.544c0.168,0.184,0.521,0.552,0.983,0.552h3.983
			c0.632-6.258,5.904-11.147,12.333-11.147c6.425,0,11.701,4.889,12.331,11.147h34.071c0.83,0,1.446-0.693,1.675-1.045
			c1.646-2.628,2.599-5.705,2.599-8.995C85.696,35.723,77.716,27.974,67.891,27.974z M21.612,49.436
			c-0.123,0.201-0.323,0.308-0.538,0.308c-0.11,0-0.216-0.03-0.308-0.077l-1.524-0.893c-0.305-0.168-0.401-0.536-0.229-0.846
			c0.169-0.29,0.555-0.382,0.845-0.215l1.52,0.878C21.674,48.759,21.779,49.144,21.612,49.436z M27.117,43.546
			c-0.095,0.062-0.2,0.095-0.309,0.095c-0.217,0-0.433-0.11-0.537-0.31l-2.537-4.397c-0.17-0.291-0.08-0.676,0.231-0.846
			c0.29-0.169,0.675-0.075,0.845,0.23l2.535,4.382C27.517,43.011,27.407,43.379,27.117,43.546z M35.571,40.703
			c0,0.353-0.276,0.633-0.613,0.633c-0.353,0-0.633-0.28-0.633-0.633V28.849c0-0.34,0.28-0.615,0.618-0.615
			c0.353,0,0.628,0.275,0.628,0.615V40.703z M43.6,43.486c-0.125,0.2-0.325,0.308-0.54,0.308c-0.105,0-0.215-0.033-0.305-0.078
			c-0.31-0.17-0.4-0.552-0.233-0.845l10.273-17.804c0.184-0.294,0.553-0.4,0.845-0.23c0.309,0.168,0.4,0.551,0.23,0.846L43.6,43.486
			z M73.749,35.492L49.15,49.7c-0.107,0.06-0.201,0.075-0.308,0.075c-0.215,0-0.431-0.107-0.539-0.306
			c-0.169-0.294-0.077-0.677,0.23-0.845l24.585-14.194c0.295-0.167,0.677-0.077,0.845,0.216
			C74.134,34.953,74.043,35.323,73.749,35.492z"/>
		<path fill="#3498DB" d="M35.016,68.934c6.843,0,12.396-5.553,12.396-12.396H22.619C22.619,63.381,28.167,68.934,35.016,68.934"/>
		<path fill="#3498DB" d="M53.329,89.518c-0.214,0-0.422-0.112-0.537-0.311l-10.65-18.446c-0.172-0.296-0.07-0.677,0.229-0.848
			c0.295-0.172,0.675-0.068,0.845,0.227l10.65,18.448c0.17,0.294,0.07,0.676-0.225,0.846C53.539,89.491,53.435,89.518,53.329,89.518
			"/>
		<path fill="#3498DB" d="M72.928,79.724c-0.105,0-0.213-0.025-0.31-0.082l-24.597-14.2c-0.295-0.17-0.396-0.55-0.224-0.846
			c0.169-0.299,0.55-0.399,0.845-0.229l24.596,14.202c0.295,0.17,0.398,0.55,0.227,0.846C73.352,79.613,73.143,79.724,72.928,79.724
			"/>
		<path fill="#3498DB" d="M50.888,57.747c-0.34,0-0.621-0.274-0.621-0.617c0-0.342,0.28-0.62,0.621-0.62h31.185
			c0.341,0,0.621,0.278,0.621,0.62c0,0.343-0.28,0.617-0.621,0.617H50.888z"/>
		<path fill="#3498DB" d="M18.357,57.788c-0.34,0-0.621-0.274-0.621-0.62c0-0.341,0.278-0.619,0.621-0.619h0.878l0,0
			c0.342,0,0.618,0.276,0.62,0.619c0,0.344-0.277,0.62-0.62,0.62H18.357z"/>
		<path fill="#3498DB" d="M20.031,66.439c-0.212,0-0.423-0.112-0.538-0.311c-0.17-0.297-0.07-0.675,0.228-0.847l1.521-0.879
			c0.297-0.17,0.678-0.067,0.847,0.229c0.171,0.295,0.07,0.675-0.226,0.845l-1.521,0.881C20.244,66.413,20.136,66.439,20.031,66.439
			"/>
		<path fill="#3498DB" d="M35.025,85.396c-0.34,0-0.617-0.278-0.617-0.62V72.48c0-0.346,0.277-0.62,0.617-0.62
			c0.346,0,0.621,0.274,0.621,0.62v12.296C35.646,85.118,35.371,85.396,35.025,85.396"/>
		<path fill="#3498DB" d="M24.421,76.052c-0.105,0-0.211-0.028-0.309-0.084c-0.297-0.17-0.397-0.552-0.228-0.845l2.9-5.024
			c0.172-0.296,0.55-0.395,0.848-0.225c0.295,0.17,0.397,0.55,0.224,0.846l-2.896,5.021C24.846,75.939,24.635,76.052,24.421,76.052"
			/>
	</g>
	<path fill="#3498DB" d="M96.042,22.224c0-1.301,1.041-2.133,2.342-2.133c1.354,0,2.394,0.832,2.394,2.133V22.9
		c0,1.25-1.04,2.134-2.394,2.134c-1.301,0-2.342-0.885-2.342-2.134V22.224z M96.407,32.424c0-1.093,0.884-2.03,1.977-2.03
		c1.146,0,2.03,0.885,2.03,2.03v23.368c0,1.144-0.833,2.028-1.977,2.028c-1.146,0-2.03-0.885-2.03-2.028V32.424z"/>
	<path fill="#3498DB" d="M130.131,55.792c0,1.144-0.887,2.028-1.979,2.028c-1.145,0-2.029-0.885-2.029-2.028v-3.645
		c-2.186,3.228-5.359,5.985-10.304,5.985c-6.454,0-12.854-5.101-12.854-13.947v-0.104c0-8.795,6.401-14,12.854-14
		c4.996,0,8.223,2.706,10.304,5.725V21.339c0-1.145,0.833-2.029,1.979-2.029c1.144,0,2.03,0.885,2.03,2.029V55.792z M107.075,44.03
		v0.104c0,6.349,4.424,10.41,9.472,10.41c4.996,0,9.731-4.216,9.731-10.41V44.03c0-6.193-4.735-10.357-9.731-10.357
		C111.343,33.673,107.075,37.524,107.075,44.03z"/>
	<path fill="#3498DB" d="M132.622,44.238v-0.105c0-7.598,5.935-14.051,14.053-14.051c8.065,0,13.999,6.35,13.999,13.948v0.104
		c0,7.598-5.984,14.051-14.103,14.051C138.503,58.185,132.622,51.836,132.622,44.238z M156.562,44.238v-0.105
		c0-5.776-4.318-10.513-9.99-10.513c-5.831,0-9.837,4.736-9.837,10.409v0.104c0,5.776,4.268,10.461,9.94,10.461
		C152.503,54.595,156.562,49.91,156.562,44.238z M140.637,26.075c0-0.26,0.157-0.572,0.312-0.78l3.175-4.788
		c0.468-0.729,0.988-1.145,1.769-1.145c1.198,0,2.654,0.781,2.654,1.509c0,0.417-0.26,0.781-0.625,1.145l-3.85,3.799
		c-0.886,0.833-1.457,0.989-2.394,0.989C141.105,26.804,140.637,26.491,140.637,26.075z M149.172,26.075
		c0-0.26,0.156-0.572,0.312-0.78l3.176-4.788c0.467-0.729,0.986-1.145,1.769-1.145c1.197,0,2.653,0.781,2.653,1.509
		c0,0.417-0.26,0.781-0.624,1.145l-3.852,3.799c-0.886,0.833-1.457,0.989-2.394,0.989C149.588,26.804,149.172,26.491,149.172,26.075
		z"/>
	<path fill="#3498DB" d="M163.181,21.339c0-1.093,0.885-2.029,1.978-2.029c1.145,0,2.029,0.937,2.029,2.029v24.668l14.572-14.832
		c0.468-0.52,0.937-0.78,1.561-0.78c1.093,0,1.822,0.885,1.822,1.874c0,0.625-0.26,1.041-0.782,1.561l-8.795,8.639l9.628,12.126
		c0.365,0.468,0.521,0.832,0.521,1.352c0,1.094-0.831,1.874-1.924,1.874c-0.729,0-1.199-0.26-1.72-0.937l-9.314-11.762l-5.568,5.517
		v5.154c0,1.144-0.833,2.028-1.978,2.028s-2.029-0.885-2.029-2.028V21.339z"/>
	<path fill="#3498DB" d="M198.356,58.185c-7.391,0-13.427-5.673-13.427-13.999v-0.104c0-7.755,5.464-14,12.907-14
		c7.961,0,12.487,6.505,12.487,13.635c0,1.093-0.883,1.873-1.872,1.873h-19.463c0.571,5.83,4.683,9.107,9.471,9.107
		c3.33,0,5.776-1.301,7.755-3.122c0.312-0.26,0.677-0.469,1.145-0.469c0.989,0,1.769,0.781,1.769,1.718
		c0,0.47-0.206,0.937-0.623,1.302C205.955,56.571,202.937,58.185,198.356,58.185z M206.318,42.624
		c-0.416-4.892-3.226-9.159-8.587-9.159c-4.683,0-8.223,3.903-8.742,9.159H206.318z M196.69,26.075c0-0.26,0.104-0.572,0.26-0.78
		l3.124-4.735c0.52-0.781,1.093-1.198,1.872-1.198c1.25,0,2.811,0.833,2.811,1.562c0,0.416-0.312,0.781-0.728,1.197l-3.903,3.695
		c-0.833,0.833-1.458,0.989-2.446,0.989C197.107,26.804,196.69,26.491,196.69,26.075z"/>
	<path fill="#3498DB" d="M212.834,32.424c0-1.145,0.885-2.03,1.979-2.03c1.144,0,2.029,0.885,2.029,2.03v3.643
		c2.185-3.226,5.359-5.985,10.304-5.985c6.452,0,12.854,5.1,12.854,13.948v0.104c0,8.795-6.349,14-12.854,14
		c-4.997,0-8.223-2.706-10.304-5.725v17.435c0,1.146-0.833,2.03-1.979,2.03c-1.145,0-2.029-0.885-2.029-2.03V32.424z
		 M235.889,44.186v-0.104c0-6.35-4.372-10.409-9.473-10.409c-4.994,0-9.73,4.216-9.73,10.357v0.104c0,6.245,4.736,10.41,9.73,10.41
		C231.622,54.543,235.889,50.69,235.889,44.186z"/>
	<path fill="#3498DB" d="M96.509,71.342v-8.094c0-0.174,0.149-0.323,0.325-0.323h5.646c0.162,0,0.299,0.136,0.299,0.299
		s-0.138,0.299-0.299,0.299h-5.322v3.435h4.761c0.162,0,0.299,0.139,0.299,0.302c0,0.162-0.137,0.299-0.299,0.299h-4.761v3.51h5.384
		c0.163,0,0.3,0.138,0.3,0.299c0,0.165-0.137,0.301-0.3,0.301h-5.708C96.659,71.667,96.509,71.518,96.509,71.342z M99.47,62.036
		c0-0.05,0.024-0.099,0.05-0.136l0.775-1.163c0.099-0.15,0.2-0.225,0.35-0.225c0.236,0,0.524,0.162,0.524,0.286
		c0,0.076-0.062,0.151-0.137,0.226l-1,0.962c-0.149,0.138-0.237,0.162-0.4,0.162C99.544,62.148,99.47,62.1,99.47,62.036z"/>
	<path fill="#3498DB" d="M106.126,63.199c0-0.176,0.15-0.325,0.325-0.325s0.325,0.149,0.325,0.325v7.868h4.884
		c0.163,0,0.3,0.138,0.3,0.299c0,0.165-0.137,0.301-0.3,0.301h-5.208c-0.175,0-0.325-0.149-0.325-0.325V63.199z"/>
	<path fill="#3498DB" d="M114.221,67.32v-0.024c0-2.386,1.761-4.522,4.408-4.522c2.648,0,4.386,2.11,4.386,4.496v0.026
		c0,2.386-1.762,4.521-4.41,4.521S114.221,69.706,114.221,67.32z M122.339,67.32v-0.024c0-2.161-1.574-3.936-3.734-3.936
		c-2.161,0-3.71,1.75-3.71,3.909v0.026c0,2.159,1.575,3.934,3.735,3.934C120.79,71.229,122.339,69.481,122.339,67.32z
		 M117.331,61.911c0-0.051,0.024-0.099,0.049-0.137l0.788-1.174c0.099-0.149,0.186-0.213,0.335-0.213
		c0.226,0,0.489,0.151,0.489,0.274c0,0.075-0.051,0.137-0.125,0.213l-0.974,0.985c-0.149,0.139-0.238,0.163-0.4,0.163
		C117.406,62.023,117.331,61.975,117.331,61.911z M119.23,61.911c0-0.051,0.023-0.099,0.049-0.137l0.786-1.174
		c0.102-0.149,0.188-0.213,0.338-0.213c0.226,0,0.487,0.151,0.487,0.274c0,0.075-0.05,0.137-0.126,0.213l-0.974,0.985
		c-0.149,0.139-0.236,0.163-0.4,0.163C119.304,62.023,119.23,61.975,119.23,61.911z"/>
	<path fill="#3498DB" d="M132.598,63.199c0-0.176,0.149-0.325,0.324-0.325c0.174,0,0.324,0.149,0.324,0.325v8.193
		c0,0.174-0.15,0.325-0.324,0.325c-0.175,0-0.324-0.151-0.324-0.325V63.199z"/>
	<path fill="#3498DB" d="M137.181,63.248c0-0.174,0.151-0.323,0.325-0.323h2.586c2.747,0,4.646,1.885,4.646,4.345v0.026
		c0,2.461-1.899,4.371-4.646,4.371h-2.586c-0.174,0-0.325-0.149-0.325-0.325V63.248z M140.092,71.067
		c2.435,0,3.972-1.66,3.972-3.747v-0.024c0-2.073-1.537-3.773-3.972-3.773h-2.262v7.545H140.092z"/>
	<path fill="#3498DB" d="M147.811,67.32v-0.024c0-2.386,1.762-4.522,4.41-4.522s4.382,2.11,4.382,4.496v0.026
		c0,2.386-1.761,4.521-4.409,4.521C149.547,71.817,147.811,69.706,147.811,67.32z M155.928,67.32v-0.024
		c0-2.161-1.573-3.936-3.734-3.936c-2.16,0-3.709,1.75-3.709,3.909v0.026c0,2.159,1.574,3.934,3.736,3.934
		C154.381,71.229,155.928,69.481,155.928,67.32z M150.92,61.911c0-0.051,0.026-0.099,0.051-0.137l0.787-1.174
		c0.1-0.149,0.188-0.213,0.337-0.213c0.224,0,0.487,0.151,0.487,0.274c0,0.075-0.052,0.137-0.125,0.213l-0.975,0.985
		c-0.149,0.139-0.237,0.163-0.399,0.163C150.996,62.023,150.92,61.975,150.92,61.911z M152.818,61.911
		c0-0.051,0.025-0.099,0.05-0.137l0.787-1.174c0.1-0.149,0.188-0.213,0.338-0.213c0.225,0,0.486,0.151,0.486,0.274
		c0,0.075-0.049,0.137-0.125,0.213l-0.974,0.985c-0.15,0.139-0.238,0.163-0.398,0.163C152.894,62.023,152.818,61.975,152.818,61.911
		z"/>
	<path fill="#3498DB" d="M158.964,70.354c-0.024-0.035-0.05-0.112-0.05-0.174c0-0.176,0.15-0.325,0.324-0.325
		c0.137,0,0.225,0.088,0.262,0.149c0.513,0.787,1.086,1.2,2.036,1.2c1.075,0,1.899-0.811,1.899-2.337v-5.669
		c0-0.176,0.149-0.325,0.324-0.325s0.325,0.149,0.325,0.325v5.62c0,1.012-0.312,1.786-0.799,2.274
		c-0.463,0.461-1.088,0.699-1.787,0.699C160.287,71.793,159.489,71.192,158.964,70.354z"/>
	<path fill="#3498DB" d="M166.933,71.243l3.734-8.095c0.087-0.188,0.212-0.312,0.438-0.312h0.025c0.226,0,0.349,0.123,0.436,0.312
		l3.724,8.068c0.038,0.075,0.05,0.139,0.05,0.2c0,0.162-0.137,0.301-0.312,0.301c-0.149,0-0.263-0.112-0.325-0.251l-1.025-2.247
		h-5.158l-1.023,2.261c-0.062,0.149-0.163,0.237-0.312,0.237c-0.163,0-0.3-0.125-0.3-0.274
		C166.883,71.393,166.894,71.317,166.933,71.243z M173.402,68.633l-2.298-5.06l-2.311,5.06H173.402z M170.929,61.911
		c0-0.051,0.026-0.099,0.052-0.137l0.772-1.161c0.102-0.151,0.201-0.226,0.351-0.226c0.238,0,0.525,0.162,0.525,0.287
		c0,0.075-0.062,0.15-0.138,0.225l-1,0.961c-0.149,0.139-0.236,0.163-0.399,0.163C171.005,62.023,170.929,61.975,170.929,61.911z"/>
	<path fill="#3498DB" d="M178.598,63.248c0-0.174,0.15-0.323,0.326-0.323h3.347c1.074,0,1.937,0.336,2.461,0.859
		c0.413,0.414,0.662,1.001,0.662,1.625v0.024c0,1.462-1.087,2.3-2.561,2.5l2.485,3.222c0.062,0.074,0.101,0.149,0.101,0.225
		c0,0.175-0.163,0.338-0.337,0.338c-0.126,0-0.213-0.075-0.288-0.176l-2.686-3.498h-2.86v3.349c0,0.174-0.149,0.325-0.324,0.325
		c-0.176,0-0.326-0.151-0.326-0.325V63.248z M182.195,67.459c1.463,0,2.549-0.737,2.549-1.999v-0.026
		c0-1.174-0.926-1.911-2.51-1.911h-2.986v3.937H182.195z"/>
	<path fill="#3498DB" d="M188.327,71.243l3.735-8.095c0.087-0.188,0.212-0.312,0.438-0.312h0.025c0.225,0,0.351,0.123,0.438,0.312
		l3.722,8.068c0.038,0.075,0.051,0.139,0.051,0.2c0,0.162-0.138,0.301-0.312,0.301c-0.15,0-0.263-0.112-0.325-0.251l-1.025-2.247
		h-5.158l-1.023,2.261c-0.063,0.149-0.163,0.237-0.312,0.237c-0.164,0-0.3-0.125-0.3-0.274
		C188.278,71.393,188.291,71.317,188.327,71.243z M194.798,68.633l-2.298-5.06l-2.312,5.06H194.798z M192.326,61.911
		c0-0.051,0.024-0.099,0.049-0.137l0.775-1.161c0.099-0.151,0.199-0.226,0.349-0.226c0.237,0,0.525,0.162,0.525,0.287
		c0,0.075-0.062,0.15-0.139,0.225l-0.999,0.961c-0.149,0.139-0.236,0.163-0.4,0.163C192.399,62.023,192.326,61.975,192.326,61.911z"
		/>
	<path fill="#3498DB" d="M199.444,70.568c-0.062-0.049-0.125-0.137-0.125-0.249c0-0.176,0.149-0.325,0.324-0.325
		c0.087,0,0.163,0.037,0.213,0.074c0.874,0.787,1.75,1.137,2.948,1.137c1.312,0,2.21-0.736,2.21-1.736v-0.024
		c0-0.926-0.487-1.462-2.472-1.862c-2.099-0.425-2.948-1.135-2.948-2.461v-0.024c0-1.299,1.187-2.298,2.81-2.298
		c1.174,0,1.987,0.3,2.787,0.899c0.061,0.049,0.137,0.137,0.137,0.262c0,0.176-0.149,0.326-0.324,0.326
		c-0.076,0-0.152-0.026-0.213-0.075c-0.762-0.589-1.524-0.824-2.412-0.824c-1.287,0-2.136,0.736-2.136,1.648v0.024
		c0,0.924,0.476,1.486,2.549,1.911c2.023,0.413,2.873,1.137,2.873,2.41v0.026c0,1.411-1.211,2.386-2.898,2.386
		C201.455,71.793,200.431,71.38,199.444,70.568z"/>
</g>
</svg>
