<?xml version="1.0" encoding="utf-8"?>
<!-- Generator: Adobe Illustrator 18.0.0, SVG Export Plug-In . SVG Version: 6.00 Build 0)  -->
<!DOCTYPE svg PUBLIC "-//W3C//DTD SVG 1.1//EN" "http://www.w3.org/Graphics/SVG/1.1/DTD/svg11.dtd">
<svg version="1.1" id="Layer_1" xmlns="http://www.w3.org/2000/svg" xmlns:xlink="http://www.w3.org/1999/xlink" x="0px" y="0px"
	 viewBox="0 0 758.7 241.8" enable-background="new 0 0 758.7 241.8" xml:space="preserve">
<g>
	<path fill="#79B5E3" d="M98.7,104.2h-6.8v-17h6.8v-0.9c0-17.9,11.2-27.7,27.7-27.7h3.6v19.2h-2.5c-6.6,0-9.7,4.5-9.7,8.5v0.9h12.1
		v17h-12.1V167H98.7V104.2L98.7,104.2z"/>
	<path fill="#79B5E3" d="M138.6,87.2h17.6v7.2h0.3c3.7-6.9,10.8-10.5,18.4-9.8v18.6c-17.4-0.1-17.2,16.4-17.2,20.7V167h-19.2V87.2
		L138.6,87.2z"/>
	<path fill="#79B5E3" d="M201.8,135.6c2.4,9.8,10.7,15.9,20.9,15.9c6.2,0,13.1-1.7,17.9-7.5h21.6c-10.7,25.4-35,25.7-38.8,25.7
		c-28.7,0-42.2-23.6-42.2-41.9c0-18.3,13.7-43.1,42.5-43.1c24.4,0,41.1,18.7,41.1,42.5c0,2.9,0,5.6-0.4,8.5H201.8L201.8,135.6z
		 M244.8,118.6c-2.7-10.1-11.2-15.9-21-15.9c-10.5,0-19,6.3-22.2,15.9H244.8L244.8,118.6z"/>
	<path fill="#79B5E3" d="M294.1,135.6c2.5,9.8,10.7,15.9,20.9,15.9c6.2,0,13.1-1.7,17.9-7.5h21.6c-10.7,25.4-35,25.7-38.8,25.7
		c-28.7,0-42.2-23.6-42.2-41.9c0-18.3,13.7-43.1,42.5-43.1c24.4,0,41.1,18.7,41.1,42.5c0,2.9,0,5.6-0.4,8.5H294.1L294.1,135.6z
		 M337,118.6c-2.7-10.1-11.2-15.9-21-15.9c-10.5,0-19,6.3-22.2,15.9H337L337,118.6z"/>
	<path fill="#378ACA" d="M369.2,87.2h17.6v7.4h0.3c5.6-7.9,14.7-9.9,20.7-9.9c8.1,0,17.9,3.5,23.3,12.4c4.6-6.3,12.5-12.4,25.5-12.4
		c19.4,0,32.6,13.3,32.6,35.7V167H470v-42.4c0-7.2-0.9-21.9-15.7-21.9c-14.7,0-15.6,14.7-15.6,21.9V167h-19.2v-42.4
		c0-7.2-0.9-21.9-15.7-21.9c-14.7,0-15.6,14.7-15.6,21.9V167h-19.2V87.2L369.2,87.2z"/>
	<path fill="#378ACA" d="M584.2,167h-17.6v-10.8h-0.3c-9.2,12.7-22.5,13.4-26.7,13.4c-20.3,0-39.1-16-39.1-41.8
		c0-25.1,17.6-43.2,39.6-43.2c11.4,0,20.3,4.8,26.1,13.8h0.3V87.2h17.6V167L584.2,167z M519.7,127.8c0,13.5,9.5,23.6,23.5,23.6
		c13.7,0,22.9-9.9,22.9-24.5c0-13.8-9.1-24.2-22.9-24.2C529.4,102.7,519.7,113.4,519.7,127.8L519.7,127.8z"/>
	<path fill="#378ACA" d="M599.7,60.4h19.2v17.6h-19.2V60.4L599.7,60.4z M599.7,87.2h19.2V167h-19.2V87.2L599.7,87.2z"/>
	<polygon fill="#378ACA" points="634.3,60.4 653.5,60.4 653.5,167 634.3,167 634.3,60.4 	"/>
	<polygon fill="#79B5E3" points="79.3,71.6 79.3,56.5 46.7,56.5 46.7,180.9 79.3,180.9 79.3,165.7 64.2,165.7 64.2,71.6 79.3,71.6 	
		"/>
	<polygon fill="#79B5E3" points="673,165.7 673,180.9 705.7,180.9 705.7,56.5 673,56.5 673,71.6 688.1,71.6 688.1,165.7 673,165.7 	
		"/>
</g>
</svg>
