<?xml version="1.0" encoding="utf-8"?>
<!-- Generator: Adobe Illustrator 14.0.0, SVG Export Plug-In  -->
<!DOCTYPE svg PUBLIC "-//W3C//DTD SVG 1.1//EN" "http://www.w3.org/Graphics/SVG/1.1/DTD/svg11.dtd" [
	<!ENTITY ns_flows "http://ns.adobe.com/Flows/1.0/">
]>
<svg version="1.1"
	 xmlns="http://www.w3.org/2000/svg" xmlns:xlink="http://www.w3.org/1999/xlink" xmlns:a="http://ns.adobe.com/AdobeSVGViewerExtensions/3.0/"
	 x="0px" y="0px" width="100px" height="50px" viewBox="-3.253 -7.376 100 50" enable-background="new -3.253 -7.376 100 50"
	 xml:space="preserve">
<defs>
</defs>
<path fill="#221F1F" d="M34.221,6.681h4.549V8.55c0.608-0.911,2.921-2.339,4.949-2.339c3.458,0,7.866,0.945,7.866,6.652v11.934
	H47.11V12.656c0-1.698-1.7-2.856-3.763-2.856c-2.101,0-4.577,1.122-4.577,2.959v12.038h-4.549V6.681z"/>
<polygon fill="#221F1F" points="57.426,0 61.969,0 61.969,24.796 57.426,24.796 57.426,10.62 54.639,10.62 54.639,6.681 
	57.426,6.681 "/>
<path fill="#221F1F" d="M0,6.681h3.865v2.311c0.441-0.911,0.986-1.595,1.705-2.068C6.275,6.448,7.019,6.21,7.866,6.21
	c0.57,0,1.189,0.171,1.841,0.47L8.305,10.62c-0.54-0.27-0.983-0.409-1.316-0.409c-0.714,0-1.298,0.442-1.8,1.284
	c-0.471,0.891-0.746,2.579-0.713,5.129l0.028,0.849v7.323H0V6.681z"/>
<path fill="#221F1F" d="M30.156,16.219c0.026-3.026-0.913-5.433-2.72-7.264c-1.728-1.799-3.995-2.707-6.819-2.707L20.479,6.21
	c-2.675,0-4.915,0.915-6.708,2.744c-1.76,1.831-2.648,4.138-2.648,6.886c0,2.684,0.889,4.919,2.683,6.718
	c1.759,1.759,4.036,2.674,6.812,2.674h0.108c1.867,0,3.427-0.298,4.748-0.946c1.354-0.643,2.504-1.66,3.453-3.016l-3.825-1.794
	c-1.228,1.181-2.681,1.794-4.411,1.794h-0.073c-1.388-0.033-2.506-0.405-3.425-1.15c-0.915-0.782-1.485-1.799-1.688-3.086H30.12
	L30.156,16.219z M15.708,13.499c0.506-1.113,1.08-1.896,1.654-2.372c0.96-0.678,2.042-1.057,3.256-1.057h0.073
	c1.189,0,2.202,0.309,3.082,0.958c0.889,0.64,1.497,1.462,1.771,2.471H15.708z"/>
<path fill="#221F1F" d="M30.696,33.247v-0.518c0.202,0,0.372-0.024,0.571-0.094c0.173-0.067,0.349-0.17,0.479-0.278
	c0.135-0.128,0.307-0.337,0.477-0.573l0.441,0.205c-0.171,0.308-0.342,0.54-0.513,0.716c-0.203,0.165-0.405,0.302-0.645,0.409
	C31.267,33.176,31,33.247,30.696,33.247 M30.696,31.143v-0.477h1.526c-0.071-0.275-0.17-0.506-0.31-0.685
	c-0.13-0.162-0.337-0.298-0.532-0.405c-0.207-0.098-0.449-0.128-0.685-0.128v-0.51c0.685,0,1.216,0.271,1.626,0.779
	c0.302,0.37,0.438,0.851,0.479,1.425H30.696z M34.697,29.038H35.2v0.743c0.21-0.269,0.451-0.512,0.72-0.643
	c0.244-0.131,0.506-0.199,0.817-0.199c0.302,0,0.567,0.068,0.813,0.235c0.229,0.169,0.406,0.372,0.544,0.606
	c0.099,0.275,0.165,0.675,0.165,1.262v2.104h-0.544v-1.973c0-0.472,0-0.783-0.062-0.952c-0.036-0.271-0.174-0.474-0.349-0.605
	c-0.165-0.138-0.403-0.212-0.669-0.212c-0.308,0-0.617,0.107-0.851,0.344c-0.239,0.203-0.407,0.474-0.505,0.784
	c-0.04,0.202-0.079,0.574-0.079,1.079v1.535h-0.502V29.038z M40.736,27.542h0.546v1.495h0.845v0.441h-0.845v3.668h-0.546v-3.668
	h-0.714v-0.441h0.714V27.542z M43.99,27.379c0.133,0,0.241,0.032,0.31,0.099c0.096,0.097,0.134,0.202,0.134,0.341
	c0,0.097-0.038,0.197-0.134,0.268c-0.069,0.104-0.177,0.137-0.31,0.137c-0.095,0-0.199-0.032-0.308-0.137
	c-0.058-0.07-0.103-0.171-0.103-0.268c0-0.139,0.044-0.244,0.103-0.341C43.791,27.412,43.896,27.379,43.99,27.379 M43.755,29.038
	h0.502v4.114h-0.502V29.038z M46.707,27.542h0.511v1.495h0.846v0.441h-0.846v3.668h-0.511v-3.668h-0.681v-0.441h0.681V27.542z
	 M50.333,32.296c0.146,0,0.234,0.061,0.342,0.133c0.1,0.1,0.131,0.206,0.131,0.341c0,0.136-0.031,0.236-0.131,0.344
	c-0.107,0.063-0.196,0.133-0.342,0.133c-0.099,0-0.242-0.07-0.306-0.133c-0.101-0.107-0.134-0.208-0.134-0.344
	c0-0.135,0.033-0.241,0.134-0.341C50.091,32.357,50.235,32.296,50.333,32.296 M52.809,27.478h0.541v2.303
	c0.213-0.269,0.438-0.512,0.681-0.643c0.27-0.131,0.541-0.199,0.848-0.199c0.311,0,0.582,0.068,0.819,0.235
	c0.239,0.169,0.409,0.372,0.508,0.606c0.103,0.275,0.165,0.675,0.165,1.262v2.104h-0.51v-1.973c0-0.472-0.03-0.783-0.062-0.952
	c-0.074-0.271-0.167-0.474-0.372-0.605c-0.178-0.138-0.375-0.212-0.645-0.212c-0.341,0-0.608,0.107-0.888,0.344
	c-0.241,0.203-0.407,0.474-0.472,0.784c-0.073,0.202-0.073,0.535-0.073,1.079v1.535h-0.541V27.478z M58.337,29.038h0.54v1.904
	c0,0.475,0.04,0.805,0.069,0.977c0.071,0.242,0.237,0.438,0.445,0.583c0.198,0.134,0.473,0.228,0.747,0.228
	c0.31,0,0.54-0.094,0.745-0.228c0.206-0.145,0.343-0.31,0.445-0.549c0.03-0.169,0.062-0.508,0.062-1.011v-1.904h0.549v2.005
	c0,0.569-0.07,0.978-0.206,1.286c-0.143,0.265-0.343,0.506-0.615,0.639c-0.234,0.18-0.574,0.279-0.979,0.279
	c-0.404,0-0.716-0.1-0.981-0.279c-0.28-0.133-0.478-0.374-0.614-0.639c-0.133-0.309-0.206-0.744-0.206-1.322V29.038z M0.035,29.038
	h0.544l1.254,2.982l1.284-2.982h0.111l1.276,2.982l1.291-2.982h0.542l-1.758,4.109H4.476l-1.287-2.955l-1.327,2.955H1.764
	L0.035,29.038z M30.696,28.939v0.51h-0.033c-0.375,0-0.721,0.128-1.014,0.371c-0.208,0.198-0.376,0.475-0.481,0.847h1.527v0.477
	h-1.557c0,0.469,0.134,0.846,0.439,1.153c0.303,0.297,0.643,0.433,1.084,0.433h0.033v0.518c-0.673,0-1.19-0.24-1.557-0.679
	c-0.374-0.441-0.548-0.923-0.548-1.461s0.137-0.989,0.469-1.389c0.382-0.508,0.926-0.779,1.603-0.779H30.696z M7.322,29.038h0.544
	l1.258,2.982l1.317-2.982h0.073l1.318,2.982l1.254-2.982h0.548l-1.76,4.109h-0.108l-1.291-2.955l-1.323,2.955H9.09L7.322,29.038z
	 M14.658,29.038h0.498l1.262,2.982l1.319-2.982h0.105l1.291,2.982l1.281-2.982h0.55l-1.768,4.109h-0.097l-1.327-2.955l-1.292,2.955
	h-0.102L14.658,29.038z M23.063,32.296c0.137,0,0.238,0.061,0.339,0.133c0.067,0.1,0.137,0.206,0.137,0.341
	c0,0.136-0.07,0.236-0.137,0.344c-0.101,0.063-0.202,0.133-0.339,0.133s-0.235-0.07-0.31-0.133c-0.099-0.107-0.13-0.208-0.13-0.344
	c0-0.135,0.031-0.241,0.13-0.341C22.828,32.357,22.926,32.296,23.063,32.296 M25.334,29.038h0.543v0.61
	c0.175-0.243,0.341-0.403,0.506-0.541c0.175-0.1,0.379-0.168,0.549-0.168c0.169,0,0.302,0.068,0.472,0.133l-0.268,0.44
	c-0.107-0.033-0.205-0.063-0.28-0.063c-0.169,0-0.333,0.063-0.498,0.235c-0.176,0.136-0.307,0.334-0.375,0.649
	c-0.068,0.235-0.107,0.709-0.107,1.413v1.4h-0.543V29.038z"/>
<rect x="67.057" y="6.887" fill="#DF344D" width="26.356" height="26.357"/>
<polygon fill="#FFFFFF" points="78.318,11.875 88.764,11.875 88.764,15.401 85.311,15.401 85.311,28.254 81.673,28.254 
	81.673,15.401 78.318,15.401 "/>
<polygon fill="#FFFFFF" points="75.018,28.254 72.498,28.254 72.498,16.864 75.018,16.864 75.018,28.254 "/>
<path fill="#221F1F" d="M73.743,11.361c-1.125,0-2.07,0.918-2.07,2.078c0,1.149,0.945,2.098,2.07,2.098c1.146,0,2.1-0.948,2.1-2.098
	C75.842,12.279,74.888,11.361,73.743,11.361"/>
</svg>
