<?xml version="1.0" encoding="utf-8"?>
<!-- Generator: Adobe Illustrator 18.0.0, SVG Export Plug-In . SVG Version: 6.00 Build 0)  -->
<!DOCTYPE svg PUBLIC "-//W3C//DTD SVG 1.1//EN" "http://www.w3.org/Graphics/SVG/1.1/DTD/svg11.dtd">
<svg version="1.1" id="Layer_1" xmlns="http://www.w3.org/2000/svg" xmlns:xlink="http://www.w3.org/1999/xlink" x="0px" y="0px"
	 viewBox="0 0 69.6 66.9" enable-background="new 0 0 69.6 66.9" xml:space="preserve">
	<g>
		<path fill="#1C61AD" d="M36.4,0C18,0,3.1,14.9,3.1,33.2c0,18.4,14.9,33.2,33.2,33.2c18.4,0,33.2-14.9,33.2-33.2
			C69.6,14.9,54.7,0,36.4,0z M36.4,57.2c-13.2,0-24-10.8-24-24c0-13.2,10.8-24,24-24c13.2,0,24,10.8,24,24
			C60.4,46.5,49.6,57.2,36.4,57.2z"/>
		<path fill="#FFFFFF" d="M36.3,62.3c-16,0-29.1-13-29.1-29.1c0-16,13-29.1,29.1-29.1c16,0,29.1,13,29.1,29.1
			C65.4,49.3,52.4,62.3,36.3,62.3z"/>
		<polygon fill="#1C61AD" points="34.6,24.5 28.7,27.3 28.7,20.6 41.1,14.5 41.8,14.5 41.8,46.3 34.6,46.3 		"/>
		<path fill="#1C61AD" d="M53.9,34.2c-5.8,0-9.3-3.6-9.3-9.5c0-6.1,4.2-10.2,10.8-10.2c6.4,0,10.6,4.2,10.6,10.3
			c0,3.5-1.4,6.4-3.6,9.8l-7.6,11.7h-8.4l8.3-12.2C54.5,34.1,54.2,34.2,53.9,34.2z M58.7,24.7c0-2.3-1.5-3.9-3.4-3.9
			c-2,0-3.4,1.5-3.4,3.9c0,2.4,1.4,3.9,3.4,3.9C57.3,28.6,58.7,27,58.7,24.7z"/>
		<polygon fill="#FFFFFF" points="27.3,49 0,37.7 0,30.5 27.3,19.2 27.3,28.4 13.3,34.1 27.3,39.8 		"/>
		<polyline fill="#26AAE1" points="25.4,22 1.9,31.8 1.9,36.5 25.4,46.2 25.4,41.1 8.4,34.1 25.4,27.1 25.4,22 		"/>
	</g>
</svg>
